<?xml version="1.0" standalone="no"?>
<!DOCTYPE svg PUBLIC "-//W3C//DTD SVG 1.1//EN" "http://www.w3.org/Graphics/SVG/1.1/DTD/svg11.dtd" >
<svg xmlns="http://www.w3.org/2000/svg">
<metadata>
Created by FontForge 20120731 at Thu Aug 20 10:23:13 2015
 By Ads
</metadata>
<defs>
<font id="iconfont" horiz-adv-x="1024" >
  <font-face 
    font-family="iconfont"
    font-weight="500"
    font-stretch="normal"
    units-per-em="1024"
    panose-1="2 0 6 3 0 0 0 0 0 0"
    ascent="812"
    descent="-212"
    x-height="792"
    bbox="22 -184 998 793"
    underline-thickness="50"
    underline-position="-100"
    unicode-range="U+0078-F00F5"
  />
<missing-glyph horiz-adv-x="374" 
d="M34 0v682h272v-682h-272zM68 34h204v614h-204v-614z" />
    <glyph glyph-name=".notdef" horiz-adv-x="374" 
d="M34 0v682h272v-682h-272zM68 34h204v614h-204v-614z" />
    <glyph glyph-name=".null" horiz-adv-x="0" 
 />
    <glyph glyph-name="nonmarkingreturn" horiz-adv-x="341" 
 />
    <glyph glyph-name="x" unicode="x" horiz-adv-x="1001" 
d="M281 543q-27 -1 -53 -1h-83q-18 0 -36.5 -6t-32.5 -18.5t-23 -32t-9 -45.5v-76h912v41q0 16 -0.5 30t-0.5 18q0 13 -5 29t-17 29.5t-31.5 22.5t-49.5 9h-133v-97h-438v97zM955 310v-52q0 -23 0.5 -52t0.5 -58t-10.5 -47.5t-26 -30t-33 -16t-31.5 -4.5q-14 -1 -29.5 -0.5
t-29.5 0.5h-32l-45 128h-439l-44 -128h-29h-34q-20 0 -45 1q-25 0 -41 9.5t-25.5 23t-13.5 29.5t-4 30v167h911zM163 247q-12 0 -21 -8.5t-9 -21.5t9 -21.5t21 -8.5q13 0 22 8.5t9 21.5t-9 21.5t-22 8.5zM316 123q-8 -26 -14 -48q-5 -19 -10.5 -37t-7.5 -25t-3 -15t1 -14.5
t9.5 -10.5t21.5 -4h37h67h81h80h64h36q23 0 34 12t2 38q-5 13 -9.5 30.5t-9.5 34.5q-5 19 -11 39h-368zM336 498v228q0 11 2.5 23t10 21.5t20.5 15.5t34 6h188q31 0 51.5 -14.5t20.5 -52.5v-227h-327z" />
    <glyph glyph-name="uniE640" unicode="&#xe640;" 
d="M862 -65h-698q-42 0 -72 30t-30 72v519q0 42 30 72t72 30h698q48 0 64 -28q18 -31 -12 -61l-11 -11v-1q-1 0 -2 -1l-31 -32q-59 -61 -123 -126l-128 -129q-42 -43 -79 -81l-7 -7q-5 -5 -13 -5q-7 0 -12 5l-355 364q-5 5 -5 12.5t5 12.5t12.5 5t12.5 -6l342 -350
q45 46 74 75l295 300q10 11 6 19q-6 10 -33 10h-698q-28 0 -47.5 -19.5t-19.5 -47.5v-519q0 -27 19.5 -46.5t47.5 -19.5h698q27 0 46.5 19.5t19.5 46.5v450q0 47 26 88q4 6 11 8t13.5 -2t8 -11t-2.5 -14q-20 -32 -20 -69v-450q0 -42 -30 -72t-72 -30z" />
    <glyph glyph-name="uniE644" unicode="&#xe644;" 
d="M96 -84q-13 0 -22.5 9.5t-9.5 22.5v448q0 13 9.5 22.5t22.5 9.5t22.5 -9.5t9.5 -22.5v-448q0 -13 -9.5 -22.5t-22.5 -9.5zM864 428h-189q12 28 19.5 83t0.5 107q-5 45 -30 77.5t-63 45.5q-29 10 -56.5 6t-43.5 -21q-12 -12 -22 -35t-15 -41t-14 -52q-17 -70 -28 -89
q-14 -23 -40 -43t-41 -27t-28 -11h-90q-13 0 -22.5 -9.5t-9.5 -22.5v-448q0 -13 9.5 -22.5t22.5 -9.5h87q22 -12 49 -24t83.5 -26t108.5 -14h216q33 0 68.5 13t51 38.5t44 207.5t28.5 220q0 39 -31 68t-65 29zM833 -63q-4 -7 -24.5 -14t-40.5 -7h-216q-23 0 -47.5 3.5t-45 9
t-40 12.5t-34 14t-25.5 12.5t-18 8.5l-6 4h-16h-64v384h64q1 0 7 2h1h1h2h1l1 1q12 4 26 10.5t37 19.5t45.5 34t36.5 46q16 26 35 105q21 85 34 99q3 3 12.5 3t24.5 -4q41 -17 48 -70q5 -46 -4 -98.5t-16 -72t-12 -30.5q-7 -16 2 -31q9 -14 27 -14h235q8 0 20 -10.5
t12 -22.5q0 -33 -26.5 -202.5t-36.5 -191.5z" />
    <glyph glyph-name="uniE649" unicode="&#xe649;" 
d="M800 -148h-576q-40 0 -68 28t-28 68v640q0 40 28 68t68 28h448q13 0 22.5 -9.5t9.5 -22.5t-9.5 -22.5t-22.5 -9.5h-448q-13 0 -22.5 -9.5t-9.5 -22.5v-640q0 -13 9.5 -22.5t22.5 -9.5h576q13 0 22.5 9.5t9.5 22.5v512q0 13 9.5 22.5t22.5 9.5t22.5 -9.5t9.5 -22.5v-512
q0 -40 -28 -68t-68 -28zM612 364q-13 0 -22.5 9.5t-9.5 22.5t9 23l318 318q10 9 23 9t22.5 -9.5t9.5 -22.5t-9 -23l-318 -318q-10 -9 -23 -9zM480 364h-192q-13 0 -22.5 9.5t-9.5 22.5t9.5 22.5t22.5 9.5h192q13 0 22.5 -9.5t9.5 -22.5t-9.5 -22.5t-22.5 -9.5zM672 172h-384
q-13 0 -22.5 9.5t-9.5 22.5t9.5 22.5t22.5 9.5h384q13 0 22.5 -9.5t9.5 -22.5t-9.5 -22.5t-22.5 -9.5z" />
    <glyph glyph-name="uniE64A" unicode="&#xe64a;" 
d="M511 -148q-91 0 -174 35.5t-143 95.5t-95.5 143t-35.5 174t35.5 174t95.5 143t143 95.5t174 35.5t174 -35.5t143 -95.5t95.5 -143t35.5 -174t-35.5 -174t-95.5 -143t-143 -95.5t-174 -35.5zM511 684q-104 0 -192.5 -51.5t-140 -140t-51.5 -192.5t51.5 -192.5t140 -140
t192.5 -51.5t192.5 51.5t140 140t51.5 192.5t-51.5 192.5t-140 140t-192.5 51.5zM512 39q-67 0 -126.5 29t-100.5 81q-8 11 -6.5 24t12 21t23.5 6.5t21 -11.5q33 -41 79 -63.5t98 -22.5q53 0 99.5 22.5t78.5 64.5q8 11 21 12.5t23.5 -6.5t12.5 -21t-7 -24
q-41 -53 -100.5 -82.5t-127.5 -29.5zM368 297q-20 0 -34 14t-14 34v64q0 20 14 34t34 14t34 -14t14 -34v-64q0 -20 -14 -34t-34 -14zM656 297q-20 0 -34 14t-14 34v64q0 20 14 34t34 14t34 -14t14 -34v-64q0 -20 -14 -34t-34 -14z" />
    <glyph glyph-name="uniE64B" unicode="&#xe64b;" 
d="M957 407.5q-6 18.5 -25 21.5l-271 42l-120 259q-9 18 -29 18q-21 0 -29 -18l-122 -258l-271 -41q-19 -3 -25.5 -21.5t7.5 -32.5l196 -202l-47 -285q-3 -20 13.5 -31.5t33.5 -1.5l242 133l242 -134q7 -4 15 -4h1q13 0 22.5 9.5t9.5 22.5q0 6 -2 11l-45 279l197 201
q13 14 7 32.5z" />
    <glyph glyph-name="uniE64C" unicode="&#xe64c;" 
d="M767 -148q-8 0 -15 4l-242 134l-242 -133q-17 -10 -33.5 1.5t-13.5 31.5l47 285l-196 202q-14 14 -8 32.5t25 21.5l156 26q13 3 23.5 -5t13 -21t-5.5 -23.5t-21 -13.5l-95 -16l166 -170q11 -12 8 -28l-39 -235l200 110q15 8 31 -1l199 -110l-38 236q-3 16 9 27l164 169
l-225 34q-17 3 -24 18l-100 213l-100 -212q-5 -12 -17.5 -16.5t-24.5 1t-16.5 18t0.5 24.5l130 274q8 18 29 18q20 0 29 -18l120 -259l271 -42q19 -3 25 -21.5t-7 -32.5l-197 -201l46 -285q3 -20 -14 -31q-8 -6 -18 -6z" />
    <glyph glyph-name="uniE650" unicode="&#xe650;" 
d="M512 748q-146 0 -249 -103t-103 -249q0 -53 34 -127.5t76.5 -136.5t98 -130.5t80 -95.5t40.5 -44q9 -10 23 -10h1q14 0 23 11l109 125q219 268 219 408q0 146 -103 249t-249 103zM512 236q-66 0 -113 47t-47 113t47 113t113 47t113 -47t47 -113t-47 -113t-113 -47z" />
    <glyph glyph-name="uniE651" unicode="&#xe651;" 
d="M512 204q-79 0 -135.5 56.5t-56.5 135.5t56.5 135.5t135.5 56.5t135.5 -56.5t56.5 -135.5t-56.5 -135.5t-135.5 -56.5zM512 524q-53 0 -90.5 -37.5t-37.5 -90.5t37.5 -90.5t90.5 -37.5t90.5 37.5t37.5 90.5t-37.5 90.5t-90.5 37.5zM512 -148q-13 0 -22 9q-10 9 -10 22.5
t9 22.5q39 41 86 97.5t100.5 129.5t89 144.5t35.5 118.5q0 119 -84.5 203.5t-203.5 84.5t-203.5 -84.5t-84.5 -203.5q0 -57 52.5 -151.5t151.5 -215.5q9 -11 7.5 -24t-12 -21.5t-23.5 -7t-21 11.5q-219 268 -219 408q0 146 103 249t249 103t249 -103t103 -249
q0 -53 -34 -127.5t-76.5 -136.5t-98 -130.5t-80 -95.5t-40.5 -44q-9 -10 -23 -10z" />
    <glyph glyph-name="uniE652" unicode="&#xe652;" 
d="M369 -18v-1q-4 0 -8.5 -0.5t-5.5 -0.5h-3q-52 0 -89 36.5t-38 88.5q-2 53 34 91q37 39 89 40h2h2q40 0 74 -24q46 -16 92 45t19 95q-9 7 -18 17q-2 1 -3 3q-31 35 -33 80q-1 53 35 91t89 40h1h3q44 0 78.5 -28t44.5 -71q6 -18 8 -43t-1.5 -68t-28 -100.5t-68.5 -116.5
q-41 -55 -85 -93t-81.5 -54t-62.5 -21.5t-46 -5.5zM365 46q9 0 20.5 1t36.5 9t49 22.5t57.5 44.5t64.5 71q38 52 59.5 101.5t24 85.5t1 54.5t-5.5 31.5q-5 23 -22.5 37.5t-39.5 14.5q-27 -1 -45 -20t-18 -45q1 -23 17 -40v-1q6 -6 12 -10q4 -3 6 -6q10 -10 16.5 -24
t11 -36.5t-5.5 -53.5t-35 -64q-55 -74 -124 -74q-24 0 -47 9q-4 2 -8 5q-17 14 -38 14q-28 -1 -46 -20t-17 -45q0 -26 18.5 -44t44.5 -18q1 1 3 1q6 0 10 -1zM512 -151q-91 0 -174 35q-12 5 -17 17t0 24.5t17.5 17.5t24.5 0q71 -30 149 -30q104 0 192.5 51.5t140 140
t51.5 192.5t-51.5 192.5t-140 140t-192.5 51.5t-192.5 -51.5t-140 -140t-51.5 -192.5q0 -111 59 -204q7 -11 4 -24t-14.5 -20t-24.5 -4t-20 14q-68 109 -68 238q0 91 35.5 174t95.5 143t143 95.5t174 35.5t174 -35.5t143 -95.5t95.5 -143t35.5 -174t-35.5 -174t-95.5 -143
t-143 -95.5t-174 -35.5z" />
    <glyph glyph-name="uniE653" unicode="&#xe653;" 
d="M510 -184q-99 0 -190 39q-87 37 -154.5 104.5t-104.5 154.5q-39 91 -39 190.5t39 189.5q37 88 104.5 155.5t154.5 104.5q91 39 190.5 39t189.5 -39q88 -37 155.5 -104.5t104.5 -155.5q38 -90 38 -190q0 -82 -26 -159q-26 -75 -74 -137q-9 -12 -17 -21q-5 -5 -13 -5.5
t-13.5 4.5t-6 13t4.5 14q8 7 15 17q44 58 68 127q25 71 25 147q0 92 -36 176q-34 81 -96 143t-143 97q-84 35 -175.5 35t-175.5 -35q-81 -35 -143.5 -97t-96.5 -143q-35 -84 -35 -175.5t35 -175.5q34 -81 96.5 -143t143.5 -97q84 -35 175 -35q113 0 211 52q78 45 148 50
q8 0 14 -5t6.5 -12.5t-4.5 -13.5t-13 -7q-28 -2 -62.5 -14t-48.5 -19t-21 -12h-1q-107 -57 -229 -57zM333 377q-22 0 -37.5 15.5t-15.5 37.5t15.5 37.5t37.5 15.5t37.5 -15.5t15.5 -37.5t-15.5 -37.5t-37.5 -15.5zM333.5 446q-6.5 0 -11 -4.5t-4.5 -11t4.5 -11t11 -4.5
t11 4.5t4.5 11t-4.5 11t-11 4.5zM675 377q-22 0 -37.5 15.5t-15.5 37.5t15.5 37.5t37.5 15.5t37.5 -15.5t15.5 -37.5t-15.5 -37.5t-37.5 -15.5zM675 446q-6 0 -10.5 -4.5t-4.5 -11t4.5 -11t10.5 -4.5t11 4.5t5 11t-5 11t-11 4.5zM507 2q-70 0 -132.5 29t-106.5 83
q-5 6 -4.5 13.5t6.5 12.5t14 4.5t13 -6.5q39 -47 94 -73t116 -26q65 0 123 29q55 28 93 78q5 6 13 7t14 -3.5t7 -12.5t-4 -14q-43 -56 -107 -88q-65 -33 -139 -33z" />
    <glyph glyph-name="uniE65C" unicode="&#xe65c;" 
d="M954 -96l-153 163q96 116 96 265q0 113 -56 209t-151.5 151.5t-208.5 55.5t-209 -55.5t-151.5 -151.5t-55.5 -209t55.5 -208.5t151.5 -151.5t209 -56q90 0 172 37q12 6 16.5 18.5t-1 24.5t-18 16.5t-24.5 -0.5q-69 -32 -145 -32q-96 0 -177 47.5t-128 128.5t-47 176.5
t47 176.5t128 128t176.5 47t176.5 -47t128.5 -128t47.5 -177q0 -141 -98 -244q-9 -9 -9 -22.5t10 -22.5l1 -1t1.5 -1t1.5 -1.5t1 -2.5l166 -177q9 -10 23 -10q13 0 22 9q10 9 10.5 22t-8.5 23z" />
    <glyph glyph-name="uniE65E" unicode="&#xe65e;" 
d="M512 748q-185 0 -316.5 -131.5t-131.5 -316.5t131.5 -316.5t316.5 -131.5t316.5 131.5t131.5 316.5t-131.5 316.5t-316.5 131.5zM671 236h-191q-13 0 -22.5 9.5t-9.5 22.5v255q0 13 9.5 22.5t22.5 9.5t22.5 -9.5t9.5 -22.5v-223h159q14 0 23 -9.5t9 -22.5t-9 -22.5
t-23 -9.5z" />
    <glyph glyph-name="uniE65F" unicode="&#xe65f;" 
d="M512 748q-185 0 -316.5 -131.5t-131.5 -316.5t131.5 -316.5t316.5 -131.5t316.5 131.5t131.5 316.5t-131.5 316.5t-316.5 131.5zM512 -84q-104 0 -192.5 51.5t-140 140t-51.5 192.5t51.5 192.5t140 140t192.5 51.5t192.5 -51.5t140 -140t51.5 -192.5t-51.5 -192.5
t-140 -140t-192.5 -51.5zM672 300h-160v224q0 13 -9.5 22.5t-22.5 9.5t-22.5 -9.5t-9.5 -22.5v-256q0 -13 9.5 -22.5t22.5 -9.5h192q13 0 22.5 9.5t9.5 22.5t-9.5 22.5t-22.5 9.5z" />
    <glyph glyph-name="uniE664" unicode="&#xe664;" 
d="M864 620h-352q0 40 -28 68t-68 28h-64q-40 0 -68 -28t-28 -68h-96q-40 0 -68 -28t-28 -68v-512q0 -40 28 -68t68 -28h704q40 0 68 28t28 68v512q0 40 -28 68t-68 28zM512 76q-79 0 -135.5 56.5t-56.5 135.5t56.5 135.5t135.5 56.5t135.5 -56.5t56.5 -135.5t-56.5 -135.5
t-135.5 -56.5zM816 396q-20 0 -34 14t-14 34t14 34t34 14t34 -14t14 -34t-14 -34t-34 -14z" />
    <glyph glyph-name="uniE665" unicode="&#xe665;" 
d="M512 76q-79 0 -135.5 56.5t-56.5 135.5t56.5 135.5t135.5 56.5t135.5 -56.5t56.5 -135.5t-56.5 -135.5t-135.5 -56.5zM512 396q-53 0 -90.5 -37.5t-37.5 -90.5t37.5 -90.5t90.5 -37.5t90.5 37.5t37.5 90.5t-37.5 90.5t-90.5 37.5zM864 -84h-704q-40 0 -68 28t-28 68v512
q0 40 28 68t68 28h96q13 0 22.5 -9.5t9.5 -22.5t-9.5 -22.5t-22.5 -9.5h-96q-13 0 -22.5 -9.5t-9.5 -22.5v-512q0 -13 9.5 -22.5t22.5 -9.5h704q13 0 22.5 9.5t9.5 22.5v512q0 13 -9.5 22.5t-22.5 9.5h-352q-13 0 -22.5 9.5t-9.5 22.5t9.5 22.5t22.5 9.5h352q40 0 68 -28
t28 -68v-512q0 -40 -28 -68t-68 -28zM816 476zM768 476q0 20 14 34t34 14t34 -14t14 -34t-14 -34t-34 -14t-34 14t-14 34zM480 684q0 -13 -9.5 -22.5t-22.5 -9.5h-128q-13 0 -22.5 9.5t-9.5 22.5t9.5 22.5t22.5 9.5h128q13 0 22.5 -9.5t9.5 -22.5z" />
    <glyph glyph-name="uniE666" unicode="&#xe666;" 
d="M832 684h-640q-40 0 -68 -28t-28 -68v-512q0 -40 28 -68t68 -28h211l86 -87q10 -9 23 -9t23 9l86 87h211q40 0 68 28t28 68v512q0 40 -28 68t-68 28zM336 300q-20 0 -34 14t-14 34t14 34t34 14t34 -14t14 -34t-14 -34t-34 -14zM528 300q-20 0 -34 14t-14 34t14 34t34 14
t34 -14t14 -34t-14 -34t-34 -14zM720 300q-20 0 -34 14t-14 34t14 34t34 14t34 -14t14 -34t-14 -34t-34 -14z" />
    <glyph glyph-name="uniE667" unicode="&#xe667;" 
d="M512 -116q-13 0 -23 9l-96 96q-9 10 -9 23t9.5 22.5t22.5 9.5t23 -9l73 -74l73 74q10 9 23 9h224q13 0 22.5 9.5t9.5 22.5v512q0 13 -9.5 22.5t-22.5 9.5h-640q-13 0 -22.5 -9.5t-9.5 -22.5v-512q0 -13 9.5 -22.5t22.5 -9.5h96q13 0 22.5 -9.5t9.5 -22.5t-9.5 -22.5
t-22.5 -9.5h-96q-40 0 -68 28t-28 68v512q0 40 28 68t68 28h640q40 0 68 -28t28 -68v-512q0 -40 -28 -68t-68 -28h-211l-86 -87q-10 -9 -23 -9zM336 300q-20 0 -34 14t-14 34t14 34t34 14t34 -14t14 -34t-14 -34t-34 -14zM528 300q-20 0 -34 14t-14 34t14 34t34 14t34 -14
t14 -34t-14 -34t-34 -14zM720 300q-20 0 -34 14t-14 34t14 34t34 14t34 -14t14 -34t-14 -34t-34 -14z" />
    <glyph glyph-name="uniE668" unicode="&#xe668;" 
d="M736 684q-102 0 -176 -70q-6 -5 -48 -48l-47 47q-74 71 -177 71q-106 0 -181 -75t-75 -181q0 -100 76 -182l317 -321q42 -41 87 -41t87 42l316 320l3 2q25 31 37.5 49.5t24.5 54t12 76.5q0 106 -75 181t-181 75z" />
    <glyph glyph-name="uniE669" unicode="&#xe669;" 
d="M512 -116q-45 0 -87 41l-319 323q-25 31 -37.5 49.5t-24.5 54t-12 76.5q0 106 75 181t181 75q81 0 147 -47q11 -7 13.5 -20t-5.5 -24t-21 -13.5t-24 5.5q-49 35 -110 35q-79 0 -135.5 -56.5t-56.5 -135.5q0 -43 13 -70t46 -69l316 -319q22 -22 41 -22q18 0 41 23l317 320
q58 62 58 137q0 79 -56.5 135.5t-135.5 56.5q-75 0 -130 -50l-134 -134q-9 -10 -22 -10t-22.5 9.5t-9.5 22.5t9 23l135 135q75 68 174 68q106 0 181 -75t75 -181q0 -100 -76 -182l-317 -320q-42 -42 -87 -42z" />
    <glyph glyph-name="uniE66A" unicode="&#xe66a;" 
d="M526 -112q-31 0 -69 37l-182 183h-83q-40 0 -68 28t-28 68v192q0 40 28 68t68 28h83l182 183q37 37 69 37q20 0 35 -15t15 -45v-704q0 -31 -15 -45.5t-35 -14.5zM688 82q-11 0 -19 6q-11 7 -13 20.5t6 23.5l12 18q22 29 32 45t20 45t10 60q0 33 -9 60.5t-18.5 42.5
t-29.5 42q-10 13 -17 23q-8 10 -6 23.5t13 21t24 5.5t21 -13q4 -7 16 -21q23 -31 34.5 -49.5t23.5 -55.5t12 -79q0 -41 -13 -79t-25 -57.5t-36 -51.5l-12 -17q-10 -13 -26 -13zM796 -27q-12 0 -21 8q-10 9 -10.5 22t7.5 23q58 66 91 130t33 144t-33 144t-91 130
q-8 10 -7.5 23t10.5 22t23.5 8t22.5 -11q63 -73 101 -147.5t38 -168.5t-38 -168.5t-101 -147.5q-10 -11 -25 -11z" />
    <glyph glyph-name="uniE66B" unicode="&#xe66b;" 
d="M526 -112q-31 0 -69 37l-182 183h-83q-40 0 -68 28t-28 68v192q0 40 28 68t68 28h83l182 183q37 37 69 37q20 0 35 -15t15 -45v-704q0 -31 -15 -45.5t-35 -14.5zM192 428q-13 0 -22.5 -9.5t-9.5 -22.5v-192q0 -13 9.5 -22.5t22.5 -9.5h96q13 0 23 -9l192 -192l9 -9v676
q-5 -4 -9 -9l-192 -192q-10 -9 -23 -9h-96zM688 82q-11 0 -19 6q-11 7 -13 20.5t6 23.5l12 18q22 29 32 45t20 45t10 60q0 33 -9 60.5t-18.5 42.5t-29.5 42q-10 13 -17 23q-8 10 -6 23.5t13 21t24 5.5t21 -13q4 -7 16 -21q23 -31 34.5 -49.5t23.5 -55.5t12 -79
q0 -41 -13 -79t-25 -57.5t-36 -51.5l-12 -17q-10 -13 -26 -13zM796 -27q-12 0 -21 8q-10 9 -10.5 22t7.5 23q58 66 91 130t33 144t-33 144t-91 130q-8 10 -7.5 23t10.5 22t23.5 8t22.5 -11q63 -73 101 -147.5t38 -168.5t-38 -168.5t-101 -147.5q-10 -11 -25 -11z" />
    <glyph glyph-name="uniE66D" unicode="&#xe66d;" 
d="M352 460h128v-128h-128v128zM919 -61l-146 145q91 108 91 248q0 159 -112.5 271.5t-271.5 112.5t-271.5 -112.5t-112.5 -271.5t112.5 -271.5t271.5 -112.5q140 0 248 91l145 -146q10 -9 23 -9t22.5 9.5t9.5 22.5t-9 23zM288 300v192q0 13 9.5 22.5t22.5 9.5h192
q13 0 22.5 -9.5t9.5 -22.5v-192q0 -13 -9.5 -22.5t-22.5 -9.5h-192q-13 0 -22.5 9.5t-9.5 22.5zM640 204q0 -13 -9.5 -22.5t-22.5 -9.5h-160q-13 0 -22.5 9.5t-9.5 22.5t9.5 22.5t22.5 9.5h128v128q0 13 9.5 22.5t22.5 9.5t22.5 -9.5t9.5 -22.5v-160z" />
    <glyph glyph-name="uniE66E" unicode="&#xe66e;" 
d="M512 268h-192q-13 0 -22.5 9.5t-9.5 22.5v192q0 13 9.5 22.5t22.5 9.5h192q13 0 22.5 -9.5t9.5 -22.5v-192q0 -13 -9.5 -22.5t-22.5 -9.5zM352 332h128v128h-128v-128zM608 172h-160q-13 0 -22.5 9.5t-9.5 22.5t9.5 22.5t22.5 9.5h128v128q0 13 9.5 22.5t22.5 9.5
t22.5 -9.5t9.5 -22.5v-160q0 -13 -9.5 -22.5t-22.5 -9.5zM896 -116q-13 0 -23 9l-167 167q-9 10 -9 23t9 23q94 93 94 226q0 132 -94 226t-226 94t-226 -94t-94 -226t94 -226t226 -94q59 0 114 21q13 5 25 -0.5t16.5 -18t-1 -24.5t-17.5 -17q-66 -25 -137 -25
q-159 0 -271.5 112.5t-112.5 271.5t112.5 271.5t271.5 112.5t271.5 -112.5t112.5 -271.5q0 -141 -91 -248l146 -145q9 -10 9 -23t-9.5 -22.5t-22.5 -9.5z" />
    <glyph glyph-name="uniE672" unicode="&#xe672;" 
d="M406 -120q-15 0 -24 11q-24 26 -55.5 45t-57.5 28t-53.5 14t-38 6t-16.5 1q-13 0 -22.5 9t-9.5 22.5t9 23t22 9.5q6 0 21 -1t47 -7t64 -17t70 -34.5t67 -56.5q9 -10 8.5 -23t-10.5 -22q-9 -8 -21 -8zM620 -120q-12 0 -22 8q-9 9 -9.5 22.5t8.5 23.5q30 32 68.5 56
t70 34.5t63.5 16.5t46 7t21 1q13 0 22 -9.5t9 -23t-9.5 -22.5t-22.5 -9v0q-6 0 -16 -0.5t-37.5 -6t-53.5 -14.5t-58 -28.5t-56 -45.5q-10 -10 -24 -10zM564 43h-102q-5 0 -9 1q-81 11 -148 56.5t-112 121.5q-51 87 -62 191t23 186q8 19 29 19h10q91 0 169 -34
q57 103 128 155q4 3 8 5q16 7 31 -2l4 -4q71 -51 127 -156q79 36 173 36h10q21 0 29 -19q34 -82 23 -186t-62 -192q-45 -75 -112 -121t-148 -56q-5 -1 -9 -1zM468 107h90h2q140 16 217 147q41 69 52.5 151.5t-9.5 148.5q-88 -3 -159 -42q-12 -7 -25 -3t-19 17
q-49 99 -106 148q-58 -50 -106 -146q-6 -13 -19 -17t-25 3q-70 38 -155 40q-21 -66 -9.5 -148.5t52.5 -151.5q77 -131 217 -147h2zM513 -148q-13 0 -22.5 9.5t-9.5 22.5v191q0 13 9.5 22.5t22.5 9.5t22.5 -9.5t9.5 -22.5v-191q0 -13 -9.5 -22.5t-22.5 -9.5z" />
    <glyph glyph-name="uniE673" unicode="&#xe673;" 
d="M799 -88h-639q-40 0 -68 28t-28 68v578q0 40 28 68t68 28h642q40 0 68 -28t28 -68v-94q0 -13 -9 -22.5t-22.5 -9.5t-23 9.5t-9.5 22.5v94q0 13 -9 22.5t-23 9.5h-642q-13 0 -22.5 -9.5t-9.5 -22.5v-578q0 -14 9.5 -23t22.5 -9h639q14 0 23 9t9 23v98q0 14 9.5 23t23 9
t22.5 -9t9 -23v-98q0 -40 -28 -68t-68 -28zM661 298zM630 298q0 13 9.5 22t22 9t22 -9t9.5 -22t-9.5 -22t-22 -9t-22 9t-9.5 22zM896 172h-320q-26 0 -45 19t-19 45v128q0 26 19 45t45 19h320q26 0 45 -19t19 -45v-128q0 -26 -19 -45t-45 -19zM576 364v-128h320v128h-320z
" />
    <glyph glyph-name="uniE675" unicode="&#xe675;" 
d="M287 300h-62q-13 0 -22.5 9.5t-9.5 22.5t9.5 22.5t22.5 9.5h62q13 0 22.5 -9.5t9.5 -22.5t-9.5 -22.5t-22.5 -9.5zM883 684h-742q-32 0 -54.5 -22.5t-22.5 -54.5v-155v-8v-458q0 -29 21 -49.5t50 -20.5h754q29 0 50 20.5t21 49.5v458v163q0 32 -22.5 54.5t-54.5 22.5z
M896 607v-131h-223v144h210q5 0 9 -4t4 -9zM447 620h162v-360l-71 28q-12 5 -24 0l-67 -28v360zM128 607q0 5 4 9t9 4h242v-144h-255v131zM889 -20h-754q-7 0 -7 6v426h255v-200q0 -17 14 -26q8 -6 18 -6q6 0 12 3l99 40l103 -40q15 -7 29.5 2.5t14.5 26.5v200h223v-426
q0 -6 -7 -6z" />
    <glyph glyph-name="uniE676" unicode="&#xe676;" 
d="M953 459v2q-1 3 -2 5l-75 187q-10 28 -35.5 45t-58.5 17h-527q-33 0 -57 -16t-34 -45l-80 -190q-1 -2 -1 -5q-9 -27 -9 -54q0 -49 25 -91t68 -65v0v0q36 -19 83 -19q82 0 134 63q52 -62 134 -63q81 1 133 63q52 -62 135 -62q48 0 84 20q42 23 66.5 64.5t24.5 89.5
q0 28 -8 54zM839 307q-22 -12 -54 -12q-29 0 -54 14t-41 39q-4 8 -8 13q-12 13 -31 13q-20 0 -31 -13q-4 -5 -8 -13q-16 -25 -40.5 -39t-53.5 -15q-29 1 -54 15t-41 39q-4 8 -7 12q-11 13 -31.5 13t-30.5 -12q-5 -5 -9 -14q-16 -25 -41 -39t-54 -14q-31 0 -53 12v0
q-27 14 -43 40.5t-16 57.5q0 19 6 37q0 1 1 3l79 188q7 19 31 19h527q27 -2 34 -21l74 -185q1 -2 1 -3q6 -18 6 -37q0 -31 -15.5 -57.5t-42.5 -40.5zM863 204q-13 0 -22.5 -9.5t-9.5 -22.5v-175q0 -7 -5 -12.5t-13 -5.5h-602q-7 0 -12.5 5t-5.5 13v171q0 14 -9.5 23t-22.5 9
t-22.5 -9t-9.5 -23v-171q0 -34 24 -58t58 -24h602q34 0 58 24.5t24 57.5v175q0 13 -9.5 22.5t-22.5 9.5zM768 428h-512q-13 0 -22.5 9.5t-9.5 22.5t9.5 22.5t22.5 9.5h512q13 0 22.5 -9.5t9.5 -22.5t-9.5 -22.5t-22.5 -9.5z" />
    <glyph glyph-name="uniE677" unicode="&#xe677;" 
d="M430 -145q-35 0 -60 25l-68 70q-9 10 -9 23t10 23q22 21 22.5 52t-21.5 53q-21 21 -52.5 21.5t-52.5 -20.5q-10 -9 -23 -9q-14 0 -23 10l-68 70q-24 25 -23.5 59.5t25.5 58.5l443 435q24 23 59.5 23t59.5 -24l68 -71q9 -9 8.5 -22.5t-9.5 -22.5q-22 -22 -22.5 -52.5
t21.5 -52.5q21 -22 52.5 -22.5t52.5 20.5q8 8 23 9q13 0 23 -9l68 -70q24 -25 23.5 -59.5t-25.5 -59.5l-443 -434q-25 -24 -59 -24zM368 -25l48 -50q6 -6 14 -6t14 6l443 434q6 6 6 14t-5 14l-49 50q-32 -20 -71 -20q-58 0 -99 42q-40 41 -39 98q0 40 21 73l-48 50
q-6 5 -14 5.5t-14 -5.5l-444 -434q-5 -6 -5.5 -14t5.5 -14l48 -50q33 20 72 20q58 0 99 -42q40 -41 39 -99q0 -39 -21 -72zM354 229q-13 0 -22.5 9.5t-9.5 22.5t10 22l178 179q10 9 23 9t22.5 -9t9.5 -22.5t-9 -22.5l-179 -179q-10 -9 -23 -9zM450 133q-13 0 -22.5 9.5
t-9.5 22.5t9 23l179 178q9 10 22.5 10t22.5 -9.5t9 -22.5t-9 -23l-179 -178q-9 -10 -22 -10z" />
    <glyph glyph-name="uniE67C" unicode="&#xe67c;" 
d="M384 332h-192q-40 0 -68 28t-28 68v192q0 40 28 68t68 28h192q40 0 68 -28t28 -68v-192q0 -40 -28 -68t-68 -28zM192 652q-13 0 -22.5 -9.5t-9.5 -22.5v-192q0 -13 9.5 -22.5t22.5 -9.5h192q13 0 22.5 9.5t9.5 22.5v192q0 13 -9.5 22.5t-22.5 9.5h-192zM384 -116h-192
q-40 0 -68 28t-28 68v192q0 40 28 68t68 28h192q40 0 68 -28t28 -68v-192q0 -40 -28 -68t-68 -28zM192 204q-13 0 -22.5 -9.5t-9.5 -22.5v-192q0 -13 9.5 -22.5t22.5 -9.5h192q13 0 22.5 9.5t9.5 22.5v192q0 13 -9.5 22.5t-22.5 9.5h-192zM832 -116h-192q-40 0 -68 28
t-28 68v64q0 40 28 68t68 28h192q40 0 68 -28t28 -68v-64q0 -40 -28 -68t-68 -28zM640 76q-13 0 -22.5 -9.5t-9.5 -22.5v-64q0 -13 9.5 -22.5t22.5 -9.5h192q13 0 22.5 9.5t9.5 22.5v64q0 13 -9.5 22.5t-22.5 9.5h-192zM832 204h-192q-40 0 -68 28t-28 68v320q0 40 28 68
t68 28h192q40 0 68 -28t28 -68v-320q0 -40 -28 -68t-68 -28zM640 652q-13 0 -22.5 -9.5t-9.5 -22.5v-320q0 -13 9.5 -22.5t22.5 -9.5h192q13 0 22.5 9.5t9.5 22.5v320q0 13 -9.5 22.5t-22.5 9.5h-192z" />
    <glyph glyph-name="uniE682" unicode="&#xe682;" 
d="M896 556h-288q-13 0 -22.5 9.5t-9.5 22.5t9.5 22.5t22.5 9.5h288q13 0 22.5 -9.5t9.5 -22.5t-9.5 -22.5t-22.5 -9.5zM896 396h-288q-13 0 -22.5 9.5t-9.5 22.5t9.5 22.5t22.5 9.5h288q13 0 22.5 -9.5t9.5 -22.5t-9.5 -22.5t-22.5 -9.5zM896 140h-288q-13 0 -22.5 9.5
t-9.5 22.5t9.5 22.5t22.5 9.5h288q13 0 22.5 -9.5t9.5 -22.5t-9.5 -22.5t-22.5 -9.5zM896 -20h-288q-13 0 -22.5 9.5t-9.5 22.5t9.5 22.5t22.5 9.5h288q13 0 22.5 -9.5t9.5 -22.5t-9.5 -22.5t-22.5 -9.5zM384 332h-192q-40 0 -68 28t-28 68v192q0 40 28 68t68 28h192
q40 0 68 -28t28 -68v-192q0 -40 -28 -68t-68 -28zM192 652q-13 0 -22.5 -9.5t-9.5 -22.5v-192q0 -13 9.5 -22.5t22.5 -9.5h192q13 0 22.5 9.5t9.5 22.5v192q0 13 -9.5 22.5t-22.5 9.5h-192zM384 -116h-192q-40 0 -68 28t-28 68v192q0 40 28 68t68 28h192q40 0 68 -28t28 -68
v-192q0 -40 -28 -68t-68 -28zM192 204q-13 0 -22.5 -9.5t-9.5 -22.5v-192q0 -13 9.5 -22.5t22.5 -9.5h192q13 0 22.5 9.5t9.5 22.5v192q0 13 -9.5 22.5t-22.5 9.5h-192z" />
    <glyph glyph-name="uniE684" unicode="&#xe684;" 
d="M510 777q-96 0 -183.5 -37.5t-151 -101t-101 -151t-37.5 -184t37.5 -184t101 -151t151 -101t183.5 -37.5t184 37.5t151.5 101t101 151t37.5 184t-37.5 184t-101 151t-151.5 101t-184 37.5zM681.5 515q17.5 0 29.5 -12t12 -29.5t-12 -30t-29.5 -12.5t-29.5 12.5t-12 30
t12 29.5t29.5 12zM356 515q17 0 29.5 -12t12.5 -29.5t-12.5 -30t-29.5 -12.5t-29.5 12.5t-12.5 30t12.5 29.5t29.5 12zM753 126q-44 -52 -105.5 -81t-129.5 -29q-72 0 -135.5 31.5t-107.5 88.5q-5 6 -4 13.5t7 12.5q5 3 12 3q9 0 14 -7q39 -50 94.5 -77.5t119.5 -27.5
q60 0 114 25.5t93 71.5q4 6 12 6.5t13.5 -4t6.5 -12.5t-4 -14z" />
    <glyph glyph-name="uniE685" unicode="&#xe685;" 
d="M512 748q-185 0 -316.5 -131.5t-131.5 -316.5t131.5 -316.5t316.5 -131.5t316.5 131.5t131.5 316.5t-131.5 316.5t-316.5 131.5zM765 12q0 22 -21 30q-2 1 -15 6.5t-24 9.5t-27 9.5t-34 10t-36 7.5v14q46 45 74 122.5t28 146.5q0 96 -47.5 148t-134.5 52
q-89 0 -140.5 -53t-51.5 -147q0 -50 19 -130t61 -131v-17q-92 -23 -142 -40q-11 -4 -16 -14.5t-2 -21.5q-61 53 -95 127.5t-34 158.5q0 104 51.5 192.5t140 140t193 51.5t193 -51.5t140 -140t51.5 -192.5q0 -85 -35 -160t-96 -128z" />
    <glyph glyph-name="uniE686" unicode="&#xe686;" 
d="M512 748q-185 0 -316.5 -131.5t-131.5 -316.5t131.5 -316.5t316.5 -131.5t316.5 131.5t131.5 316.5t-131.5 316.5t-316.5 131.5zM289 -12q7 0 10 1q103 37 158 41q12 1 20.5 10t8.5 22v59q0 15 -11 24q-37 32 -54.5 94.5t-17.5 128.5q0 136 125 136q118 0 118 -136
q0 -66 -26 -132.5t-64 -96.5q-12 -10 -12 -25v-55q0 -13 8.5 -22t20.5 -10q50 -6 148 -45h3l2 -1q-97 -65 -214 -65q-122 0 -223 72zM765 11q0 23 -20 31q-80 31 -137 43v14q48 45 75 121.5t27 147.5q0 96 -47.5 148t-134.5 52q-89 0 -139 -53t-50 -147q0 -23 2.5 -49.5
t10 -66.5t25.5 -79t45 -66v-17q-61 -11 -145 -41q-11 -3 -16.5 -13.5t-3.5 -21.5q-60 53 -94.5 127.5t-34.5 158.5q0 159 112.5 271.5t271.5 112.5t271.5 -112.5t112.5 -271.5q0 -85 -35 -160t-96 -129z" />
    <glyph glyph-name="uniE689" unicode="&#xe689;" 
d="M928 268h-832q-13 0 -22.5 9.5t-9.5 22.5t9.5 22.5t22.5 9.5h832q13 0 22.5 -9.5t9.5 -22.5t-9.5 -22.5t-22.5 -9.5zM832 -116h-192q-13 0 -22.5 9.5t-9.5 22.5t9.5 22.5t22.5 9.5h192q13 0 22.5 9.5t9.5 22.5v160q0 13 9.5 22.5t22.5 9.5t22.5 -9.5t9.5 -22.5v-160
q0 -40 -28 -68t-68 -28zM352 -116h-160q-40 0 -68 28t-28 68v160q0 13 9.5 22.5t22.5 9.5t22.5 -9.5t9.5 -22.5v-160q0 -13 9.5 -22.5t22.5 -9.5h160q13 0 22.5 -9.5t9.5 -22.5t-9.5 -22.5t-22.5 -9.5zM128 428q-13 0 -22.5 9.5t-9.5 22.5v160q0 40 28 68t68 28h160
q13 0 22.5 -9.5t9.5 -22.5t-9.5 -22.5t-22.5 -9.5h-160q-13 0 -22.5 -9.5t-9.5 -22.5v-160q0 -13 -9.5 -22.5t-22.5 -9.5zM896 428q-13 0 -22.5 9.5t-9.5 22.5v160q0 13 -9.5 22.5t-22.5 9.5h-192q-13 0 -22.5 9.5t-9.5 22.5t9.5 22.5t22.5 9.5h192q40 0 68 -28t28 -68v-160
q0 -13 -9.5 -22.5t-22.5 -9.5z" />
    <glyph glyph-name="uniE68A" unicode="&#xe68a;" 
d="M512 204q-40 0 -68 28t-28 68t28 68t68 28t68 -28t28 -68t-28 -68t-68 -28zM512 332q-13 0 -22.5 -9.5t-9.5 -22.5t9.5 -22.5t22.5 -9.5t22.5 9.5t9.5 22.5t-9.5 22.5t-22.5 9.5zM631 -148q-16 0 -26 13l-73 101q-20 -2 -40 0l-73 -101q-13 -18 -35 -12q-52 15 -98 41
q-19 10 -16 32l20 124q-15 13 -28 28l-124 -20q-22 -3 -32 16q-26 46 -41 98q-6 22 12 35l101 73q-1 10 -1 20t1 20l-101 73q-18 13 -12 35q15 52 41 98q10 19 32 16l124 -20q13 15 28 28l-20 124q-3 22 16 32q46 26 98 41q22 6 35 -12l73 -101q20 2 40 0l73 101
q13 18 35 12q52 -15 98 -41q19 -10 16 -32l-20 -124q15 -13 28 -28l124 20q22 3 32 -16q26 -46 41 -98q6 -22 -12 -35l-101 -73q1 -10 1 -20t-1 -20l101 -73q18 -13 12 -35q-15 -52 -41 -98q-10 -19 -32 -16l-124 20q-13 -15 -28 -28l20 -124q3 -22 -16 -32q-46 -26 -98 -41
q-5 -1 -9 -1zM337 -61q21 -10 44 -18l70 97q11 15 30 13q31 -4 62 0q19 2 30 -13l70 -97q23 8 44 18l-19 119q-2 18 12 30q25 19 44 44q12 14 30 12l119 -19q10 21 18 44l-97 70q-15 11 -13 30q2 17 2 31t-2 31q-2 19 13 30l97 70q-8 23 -18 44l-119 -19q-18 -2 -30 12
q-19 25 -44 44q-14 12 -12 30l19 119q-21 10 -44 18l-70 -97q-11 -15 -30 -13q-31 4 -62 0q-19 -2 -30 13l-70 97q-23 -8 -44 -18l19 -119q2 -18 -12 -30q-25 -19 -44 -44q-12 -14 -30 -12l-119 19q-10 -21 -18 -44l97 -70q15 -11 13 -30q-2 -17 -2 -31t2 -31q2 -19 -13 -30
l-97 -70q8 -23 18 -44l119 19q18 2 30 -12q19 -25 44 -44q14 -12 12 -30z" />
    <glyph glyph-name="uniE699" unicode="&#xe699;" 
d="M800 -116h-576q-40 0 -68 28t-28 68v640q0 40 28 68t68 28h576q40 0 68 -28t28 -68v-640q0 -40 -28 -68t-68 -28zM224 652q-13 0 -22.5 -9.5t-9.5 -22.5v-640q0 -13 9.5 -22.5t22.5 -9.5h576q13 0 22.5 9.5t9.5 22.5v640q0 13 -9.5 22.5t-22.5 9.5h-576zM641 267h-353
q-13 0 -22.5 9.5t-9.5 22.5t9.5 22.5t22.5 9.5h353q13 0 22.5 -9.5t9.5 -22.5t-9.5 -22.5t-22.5 -9.5zM735 76h-447q-14 0 -23 9.5t-9 23t9 22.5t23 9h447q13 0 22.5 -9t9.5 -22.5t-9.5 -23t-22.5 -9.5zM304 507zM256 507q0 20 14 34t34 14t34 -14t14 -34t-14 -34t-34 -14
t-34 14t-14 34zM511 507zM463 507q0 20 14 34t34 14t34 -14t14 -34t-14 -34t-34 -14t-34 14t-14 34zM719 507zM671 507q0 20 14 34t34 14t34 -14t14 -34t-14 -34t-34 -14t-34 14t-14 34z" />
    <glyph glyph-name="uniE69B" unicode="&#xe69b;" 
d="M320 428zM256 428q0 26 19 45t45 19t45 -19t19 -45t-19 -45t-45 -19t-45 19t-19 45zM843 -84h-662q-48 0 -82.5 34.5t-34.5 82.5v534q0 48 34.5 82.5t82.5 34.5h662q48 0 82.5 -34.5t34.5 -82.5v-534q0 -48 -34.5 -82.5t-82.5 -34.5zM181 620q-22 0 -37.5 -15.5
t-15.5 -37.5v-534q0 -22 15.5 -37.5t37.5 -15.5h662q22 0 37.5 15.5t15.5 37.5v534q0 22 -15.5 37.5t-37.5 15.5h-662zM224 43q-5 0 -10 1q-12 4 -18 16t-3 24q3 9 8.5 23t22 45.5t36 55.5t51 42.5t66.5 17.5t92 -18q24 -7 35.5 -10t35.5 -6t39 2q14 2 22.5 17t20.5 53
q8 26 13.5 40.5t20 39t31 38t45.5 24.5t65 11q13 0 22.5 -9.5t9.5 -22.5t-9.5 -22.5t-22.5 -9.5q-28 0 -46.5 -6.5t-31 -23t-19.5 -32.5t-17 -46q-6 -19 -9.5 -29.5t-12 -27.5t-17 -26.5t-23 -18.5t-32.5 -12q-26 -2 -39.5 -3t-36 3t-33 7t-29.5 9q-50 14 -76 15h-1
q-22 0 -43 -15.5t-36 -39.5t-25 -45t-16 -38q-6 -23 -30 -23z" />
    <glyph glyph-name="uniE69C" unicode="&#xe69c;" 
d="M608.5 -148q-13.5 0 -23 9.5t-9.5 22.5v480q0 12 9 21l208 235h-563l210 -235q8 -9 8 -21v-289l51 -41q10 -8 11.5 -21.5t-7 -23.5t-21.5 -11.5t-24 6.5l-62 51q-12 10 -12 25v292l-249 279q-14 15 -5.5 34t29.5 19h706q21 0 29.5 -19t-5.5 -34l-249 -279v-468
q0 -13 -9 -22.5t-22.5 -9.5z" />
    <glyph glyph-name="uniE69D" unicode="&#xe69d;" 
d="M886 130q-11 9 -24 7.5t-21.5 -12t-7 -23.5t12.5 -21q17 -14 34.5 -47t17.5 -55q0 -41 -28.5 -69.5t-69.5 -28.5q-51 0 -80 41q-65 93 -96 126q-17 18 -39.5 30.5t-41.5 18.5t-40 9t-28.5 3.5t-14.5 0.5q-97 20 -156 89.5t-46 149.5q12 84 92 133q83 51 188 35t170 -89
q62 -71 49 -154q-5 -31 -20 -59q-7 -11 -3 -24t15.5 -19.5t24 -3t19.5 15.5q21 38 27 81q17 112 -64 205q-80 91 -208 110t-231 -44q-51 -31 -83 -77t-40 -100q-16 -106 57.5 -196.5t195.5 -115.5h5q6 0 14.5 -1t19.5 -2.5t23.5 -4.5t24.5 -7.5t23.5 -11.5t19.5 -16
q16 -16 39 -47t38.5 -53.5t17.5 -23.5q23 -30 56.5 -46.5t71.5 -16.5q67 0 114.5 47.5t47.5 114.5q0 37 -24 83t-52 68zM128 491zM64 491.5q0 26.5 19 45t45.5 18.5t45 -18.5t18.5 -45t-18.5 -45.5t-45 -19t-45.5 19t-19 45.5zM273 584q-18 0 -31 11q-15 13 -17 32.5
t11 34.5q2 2 4.5 5t11 11t18 15t24.5 16t31 16t37.5 13t44 9t50 2t56.5 -7q20 -4 31 -20.5t7 -36t-20.5 -30.5t-36.5 -7q-24 5 -47.5 5t-41 -3.5t-34 -9.5t-26.5 -12t-19 -13t-12 -10l-5 -5q-14 -16 -36 -16z" />
    <glyph glyph-name="uniE69E" unicode="&#xe69e;" 
d="M826 257l-288 289q-9 9 -23 9l-1 1h-2q-7 0 -13 -3q-6 -2 -11 -7l-259 -259q-10 -9 -10 -22.5t9.5 -23t22.5 -9.5t23 10l206 206v-564q0 -13 9.5 -22.5t22.5 -9.5t22.5 9.5t9.5 22.5v565l236 -237q10 -10 23 -10t22.5 9.5t9.5 22.5t-9 23zM864 620h-704q-13 0 -22.5 9.5
t-9.5 22.5t9.5 22.5t22.5 9.5h704q13 0 22.5 -9.5t9.5 -22.5t-9.5 -22.5t-22.5 -9.5z" />
    <glyph glyph-name="uniE69F" unicode="&#xe69f;" 
d="M512 -148q-185 0 -316.5 131.5t-131.5 316.5t131.5 316.5t316.5 131.5t316.5 -131.5t131.5 -316.5t-131.5 -316.5t-316.5 -131.5zM512 684q-159 0 -271.5 -112.5t-112.5 -271.5t112.5 -271.5t271.5 -112.5t271.5 112.5t112.5 271.5t-112.5 271.5t-271.5 112.5z
M694.5 289.5q-9.5 9.5 -23 9.5t-22.5 -9l-105 -104v307q0 13 -9.5 22.5t-22.5 9.5t-22.5 -9.5t-9.5 -22.5v-309l-105 107q-10 9 -23 9.5t-22.5 -9t-9.5 -23t9 -22.5l160 -161q9 -10 23 -10q13 0 22 9v1l160 159q10 10 10 23t-9.5 22.5z" />
    <glyph glyph-name="uniE6A0" unicode="&#xe6a0;" 
d="M512 -148q-185 0 -316.5 131.5t-131.5 316.5t131.5 316.5t316.5 131.5t316.5 -131.5t131.5 -316.5t-131.5 -316.5t-316.5 -131.5zM512 684q-159 0 -271.5 -112.5t-112.5 -271.5t112.5 -271.5t271.5 -112.5t271.5 112.5t112.5 271.5t-112.5 271.5t-271.5 112.5zM694 354
l-158 160q-15 15 -35 7l-1 -1h-1q-6 -3 -8 -6v0l-160 -159q-9 -9 -9 -22.5t9 -23t22.5 -9.5t22.5 10l104 103v-305q0 -13 9.5 -22.5t22.5 -9.5t22.5 9.5t9.5 22.5v307l105 -106q9 -10 23 -10q13 0 22.5 9.5t9.5 22.5t-10 23z" />
    <glyph glyph-name="uniE6A4" unicode="&#xe6a4;" 
d="M939.5 555.5q-12.5 4.5 -24.5 -1t-16 -18.5l-25 -69q-45 100 -133 166q-91 68 -202.5 80.5t-214.5 -30.5t-172 -134q-50 -66 -70.5 -145.5t-9.5 -162.5q12 -82 54.5 -153t110.5 -121q112 -83 251 -83q98 0 187.5 43t149.5 123q55 73 74 161q3 13 -4 24t-20 14t-24 -4.5
t-14 -20.5q-16 -74 -63 -135q-58 -77 -145.5 -113.5t-182 -25.5t-171.5 68q-57 43 -93 102.5t-46 129.5q-21 144 67 261q58 76 145.5 113t182 26t172.5 -68q87 -65 123 -167l-110 43q-13 5 -25 -0.5t-17 -18t0.5 -24.5t17.5 -17l162 -63q6 -2 12 -2h1t2 -0.5t2 -0.5
q23 0 30 22l58 161q4 12 -1.5 24t-18 16.5z" />
    <glyph glyph-name="uniE6A5" unicode="&#xe6a5;" 
d="M418 588q0 40 28 68t67.5 28t68 -28t28.5 -68t-28.5 -68t-68 -28t-67.5 28t-28 68zM418 300q0 40 28 68t67.5 28t68 -28t28.5 -68t-28.5 -68t-68 -28t-67.5 28t-28 68zM418 12q0 40 28 68t67.5 28t68 -28t28.5 -68t-28.5 -68t-68 -28t-67.5 28t-28 68z" />
    <glyph glyph-name="uniE6A6" unicode="&#xe6a6;" 
d="M928 588h-160v64q0 40 -28 68t-67 28h-321q-40 0 -68 -28t-28 -68v-64h-160q-13 0 -22.5 -9.5t-9.5 -22.5t9.5 -22.5t22.5 -9.5h832q13 0 22.5 9.5t9.5 22.5t-9.5 22.5t-22.5 9.5zM800 460h-576q-13 0 -23 -9q-9 -9 -9 -23v-480q0 -40 28 -68t68 -28h448q40 0 68 28
t28 68v480q0 13 -9.5 22.5t-22.5 9.5zM448 12q0 -13 -9.5 -22.5t-22.5 -9.5t-22.5 9.5t-9.5 22.5v352q0 13 9.5 22.5t22.5 9.5t22.5 -9.5t9.5 -22.5v-352zM640 12q0 -13 -9.5 -22.5t-22.5 -9.5t-22.5 9.5t-9.5 22.5v352q0 13 9.5 22.5t22.5 9.5t22.5 -9.5t9.5 -22.5v-352z
" />
    <glyph glyph-name="uniE6AC" unicode="&#xe6ac;" 
d="M986 222q-8 11 -21 13t-24 -6l-57 -41q15 55 15 111q0 113 -55.5 209t-152 152t-209.5 56t-209 -56t-152 -152t-56 -209t56 -209t152 -152t209 -56q111 0 207 55q6 1 10 4q27 16 51 36q10 8 11.5 21t-7 23.5t-21.5 11.5t-24 -7q-17 -14 -40 -28l-6 -2q-83 -50 -181 -50
q-95 0 -176.5 47.5t-129 128.5t-47.5 177t47.5 177t129 128.5t177 47.5t177 -47.5t128.5 -128.5t47 -177q0 -66 -24 -128l-45 109q-5 12 -17.5 17t-24.5 0t-17 -17.5t0 -24.5l72 -173q0 -1 3 -5v-1h1v-1q4 -5 10 -8l2 -1q6 -3 11 -3q0 -1 0.5 -0.5t1 0.5t0.5 -0.5t1 -0.5h1
q0 1 1 1q3 0 7 1h1q4 2 7 4h1l152 109q10 8 12.5 21t-5.5 24zM607 438q9 9 9.5 22t-9 22.5t-22.5 10t-23 -9.5l-80 -77l-79 77q-10 10 -23 9.5t-22.5 -10t-9 -22.5t9.5 -22l90 -87v-19h-64q-13 0 -22.5 -9.5t-9.5 -22.5t9.5 -22.5t22.5 -9.5h64v-32h-64q-13 0 -22.5 -9.5
t-9.5 -22.5t9.5 -22.5t22.5 -9.5h64v-67q0 -14 9.5 -23t22.5 -9t22.5 9t9.5 23v67h64q13 0 22.5 9.5t9.5 22.5t-9.5 22.5t-22.5 9.5h-64v32h64q13 0 22.5 9.5t9.5 22.5t-9.5 22.5t-22.5 9.5h-64v14z" />
    <glyph glyph-name="uniE6AF" unicode="&#xe6af;" 
d="M353 -20q-27 0 -45.5 -18.5t-18.5 -45.5t18.5 -45.5t45 -18.5t45.5 18.5t19 45.5t-19 45.5t-45 18.5zM801 -20q-27 0 -45.5 -18.5t-18.5 -45.5t18.5 -45.5t45 -18.5t45.5 18.5t19 45.5t-19 45.5t-45 18.5zM864 12h-520q-34 0 -61 24t-31 59l-54 382l-31 179
q-2 11 -11 19.5t-19 8.5h-41q-13 0 -22.5 9.5t-9.5 22.5t9.5 22.5t22.5 9.5h41q35 0 62 -24t31 -59l31 -178l54 -384q2 -11 10.5 -19t18.5 -8h520q13 0 22.5 -9.5t9.5 -22.5t-9.5 -22.5t-22.5 -9.5zM384 140q-12 0 -21.5 8.5t-10.5 21.5t8 23t22 11l434 32q12 0 21 8t10 19
l51 288q2 18 -9 30q-6 7 -15 7h-554q-13 0 -22.5 9.5t-9.5 22.5t9.5 22.5t22.5 9.5h554q38 0 63 -29q30 -33 24 -81l-51 -289q-4 -33 -30.5 -57t-61.5 -24l-431 -32h-3z" />
    <glyph glyph-name="uniE6B0" unicode="&#xe6b0;" 
d="M384 -116h-192q-40 0 -68 28t-28 68v192q0 40 28 68t68 28h192q40 0 68 -28t28 -68v-192q0 -40 -28 -68t-68 -28zM192 204q-13 0 -22.5 -9.5t-9.5 -22.5v-192q0 -13 9.5 -22.5t22.5 -9.5h192q13 0 22.5 9.5t9.5 22.5v192q0 13 -9.5 22.5t-22.5 9.5h-192zM736 -84
q-13 0 -22.5 9.5t-9.5 22.5v64q0 13 9.5 22.5t22.5 9.5t22.5 -9.5t9.5 -22.5v-64q0 -13 -9.5 -22.5t-22.5 -9.5zM864 -84q-13 0 -22.5 9.5t-9.5 22.5v96q0 13 9.5 22.5t22.5 9.5t22.5 -9.5t9.5 -22.5v-96q0 -13 -9.5 -22.5t-22.5 -9.5zM864 140q-13 0 -22.5 9.5t-9.5 22.5
v64q0 13 9.5 22.5t22.5 9.5t22.5 -9.5t9.5 -22.5v-64q0 -13 -9.5 -22.5t-22.5 -9.5zM736 76q-13 0 -22.5 9.5t-9.5 22.5v128q0 13 9.5 22.5t22.5 9.5t22.5 -9.5t9.5 -22.5v-128q0 -13 -9.5 -22.5t-22.5 -9.5zM608 -84q-13 0 -22.5 9.5t-9.5 22.5v128q0 13 9.5 22.5t22.5 9.5
t22.5 -9.5t9.5 -22.5v-128q0 -13 -9.5 -22.5t-22.5 -9.5zM608 172q-13 0 -22.5 9.5t-9.5 22.5v32q0 13 9.5 22.5t22.5 9.5t22.5 -9.5t9.5 -22.5v-32q0 -13 -9.5 -22.5t-22.5 -9.5zM320 12h-64q-13 0 -22.5 9.5t-9.5 22.5v64q0 13 9.5 22.5t22.5 9.5h64q13 0 22.5 -9.5
t9.5 -22.5v-64q0 -13 -9.5 -22.5t-22.5 -9.5zM384 332h-192q-40 0 -68 28t-28 68v192q0 40 28 68t68 28h192q40 0 68 -28t28 -68v-192q0 -40 -28 -68t-68 -28zM192 652q-13 0 -22.5 -9.5t-9.5 -22.5v-192q0 -13 9.5 -22.5t22.5 -9.5h192q13 0 22.5 9.5t9.5 22.5v192
q0 13 -9.5 22.5t-22.5 9.5h-192zM320 460h-64q-13 0 -22.5 9.5t-9.5 22.5v64q0 13 9.5 22.5t22.5 9.5h64q13 0 22.5 -9.5t9.5 -22.5v-64q0 -13 -9.5 -22.5t-22.5 -9.5zM832 332h-192q-40 0 -68 28t-28 68v192q0 40 28 68t68 28h192q40 0 68 -28t28 -68v-192q0 -40 -28 -68
t-68 -28zM640 652q-13 0 -22.5 -9.5t-9.5 -22.5v-192q0 -13 9.5 -22.5t22.5 -9.5h192q13 0 22.5 9.5t9.5 22.5v192q0 13 -9.5 22.5t-22.5 9.5h-192zM768 460h-64q-13 0 -22.5 9.5t-9.5 22.5v64q0 13 9.5 22.5t22.5 9.5h64q13 0 22.5 -9.5t9.5 -22.5v-64q0 -13 -9.5 -22.5
t-22.5 -9.5z" />
    <glyph glyph-name="uniE6B2" unicode="&#xe6b2;" 
d="M896 585q-13 0 -23 9l-96 96q-9 10 -9 23t9.5 22.5t22.5 9.5t23 -9l96 -96q9 -10 9 -23t-9.5 -22.5t-22.5 -9.5zM129.5 587q-13.5 0 -23 9.5t-9.5 22.5t10 23l96 96q9 9 22 9t22.5 -9.5t9.5 -22.5t-9 -23l-96 -96q-9 -9 -22.5 -9zM727 466q9 10 9 23t-9.5 22.5t-22.5 9.5
t-23 -9l-128 -128v-1q-20 10 -41 10t-41 -10v1l-96 96q-10 9 -23 9t-22.5 -9.5t-9.5 -22.5t9 -23l96 -96h1q-10 -20 -10 -41q0 -40 28 -68t68 -28t68 28t28 68q0 21 -10 41h1zM512 265q-13 0 -22.5 9.5t-9.5 22.5t9.5 22.5t22.5 9.5t22.5 -9.5t9.5 -22.5t-9.5 -22.5
t-22.5 -9.5zM507 297zM810 7q56 57 87 132t31 158q0 113 -55.5 208.5t-151.5 151.5t-209 56t-209 -56t-151.5 -151.5t-55.5 -208.5q0 -84 31.5 -159t88.5 -132l-49 -74q-8 -11 -5 -24t14 -21q8 -5 17 -5q18 0 27 14l44 67q111 -82 248 -82q138 0 249 84l46 -67q9 -14 26 -14
q10 0 18 6q11 7 13.5 20t-4.5 24zM160 296.5q0 95.5 47 177t128.5 128.5t176.5 47t176.5 -47t128.5 -128.5t47 -177t-47 -176.5t-128.5 -128t-176.5 -47t-176.5 47t-128.5 128t-47 176.5z" />
    <glyph glyph-name="uniE6B4" unicode="&#xe6b4;" 
d="M608 44q-13 0 -22.5 9.5t-9.5 22.5v352q0 13 9.5 22.5t22.5 9.5t22.5 -9.5t9.5 -22.5v-352q0 -13 -9.5 -22.5t-22.5 -9.5zM416 44q-13 0 -22.5 9.5t-9.5 22.5v352q0 13 9.5 22.5t22.5 9.5t22.5 -9.5t9.5 -22.5v-352q0 -13 -9.5 -22.5t-22.5 -9.5zM928 588h-160v64
q0 40 -28 68t-67 28h-321q-40 0 -68 -28t-28 -68v-64h-160q-13 0 -22.5 -9.5t-9.5 -22.5t9.5 -22.5t22.5 -9.5h832q13 0 22.5 9.5t9.5 22.5t-9.5 22.5t-22.5 9.5zM320 652q0 13 9.5 22.5t22.5 9.5h321q13 0 22 -9.5t9 -22.5v-64h-384v64zM736 -148h-448q-40 0 -68 28t-28 68
v480q0 14 9.5 23t22.5 9t22.5 -9t9.5 -23v-480q0 -13 9.5 -22.5t22.5 -9.5h448q13 0 22.5 9.5t9.5 22.5v479q0 13 9.5 22.5t22.5 9.5t22.5 -9.5t9.5 -22.5v-479q0 -40 -28 -68t-68 -28z" />
    <glyph glyph-name="uniE6B7" unicode="&#xe6b7;" 
d="M383 -148h-3q-121 11 -201.5 62t-80.5 116q0 41 38 74.5t93.5 54t123.5 30.5v13q-34 25 -56 60t-33 78t-14.5 83t-3.5 92q0 109 61 171t169 62q106 0 163 -60t57 -173q0 -52 -16.5 -114t-45.5 -116q-6 -12 -19 -15.5t-24.5 2.5t-15.5 18.5t2 24.5q25 47 40 101.5t15 98.5
q0 169 -156 169q-166 0 -166 -169q0 -47 3 -82.5t12 -73t28.5 -66.5t48.5 -48q15 -9 15 -27v-57q0 -12 -8.5 -21.5t-20.5 -10.5q-96 -10 -161 -41.5t-65 -57.5q0 -33 63.5 -69.5t159.5 -44.5q14 -1 22.5 -11.5t7.5 -23.5q-2 -12 -11 -20.5t-21 -8.5zM769 44h-128
q-14 0 -23 9.5t-9 22.5t9 22.5t23 9.5h128q13 0 22.5 -9.5t9.5 -22.5t-9.5 -22.5t-22.5 -9.5zM705 -55h-64q-14 0 -23 9t-9 22.5t9 23t23 9.5h64q13 0 22.5 -9.5t9.5 -23t-9.5 -22.5t-22.5 -9zM833 -151h-256q-40 0 -68 28t-28 68v163q0 40 28 68t68 28h256q39 0 67.5 -28
t28.5 -68v-163q0 -40 -28.5 -68t-67.5 -28zM577 140q-13 0 -22.5 -9.5t-9.5 -22.5v-163q0 -14 9.5 -23t22.5 -9h256q13 0 22.5 9t9.5 23v163q0 13 -9.5 22.5t-22.5 9.5h-256z" />
    <glyph glyph-name="uniE6B8" unicode="&#xe6b8;" 
d="M980 407l-406 321q-26 21 -62 21t-62 -21l-406 -321q-10 -8 -11.5 -21t6.5 -23.5t21 -12t23 6.5l13 11v-388q0 -40 34.5 -68t74.5 -28h640q37 0 60 26.5t23 69.5v386l12 -9q8 -7 20 -7q15 0 25 12q8 11 6.5 24t-11.5 21zM480 -52v177q0 14 32 14t32 -14v-177h-64z
M864 -20q0 -32 -19 -32h-236h-1v1v176q0 31 -25 54.5t-71 23.5t-71 -23.5t-25 -54.5v-176v-1h1h-212q-15 0 -30 10.5t-15 21.5v438l329 260q9 7 22.5 7t22.5 -7l330 -261v-437z" />
    <glyph glyph-name="uniE6B9" unicode="&#xe6b9;" 
d="M353 -20q-26 0 -45 -18.5t-19 -45t19 -45.5t45.5 -19t45 19t18.5 45.5t-18.5 45t-45.5 18.5zM801 -20q-26 0 -45 -18.5t-19 -45t19 -45.5t45.5 -19t45 19t18.5 45.5t-18.5 45t-45.5 18.5zM937 624q-25 28 -63 28h-641l-2 13q-5 35 -32 59t-62 24h-40q-13 0 -22.5 -9.5
t-9.5 -22.5t9.5 -22.5t22.5 -9.5h40q11 0 20 -8.5t10 -19.5l31 -179l54 -382q5 -35 31.5 -59t61.5 -24h520q13 0 22.5 9.5t9.5 22.5t-9.5 22.5t-22.5 9.5h-520q-10 0 -19 8t-10 19l-5 38l507 31q35 0 61.5 24t30.5 58l51 288q6 48 -24 82z" />
    <glyph glyph-name="uniE6BA" unicode="&#xe6ba;" 
d="M929 725q0 9 -3 19q-45 12 -107 -18q-7 -3 -48 -29q-19 -11 -24 -14l-1 -1q-107 66 -232 66q-91 0 -174 -35.5t-143 -95.5t-95.5 -143t-35.5 -174q0 -121 63 -227q-72 -110 -64 -158q2 -8 20 -8q39 0 101.5 32.5t120.5 75.5t122.5 98t96.5 85t54 51q146 143 247.5 276
t101.5 200zM306 201q-33 0 -56.5 23.5t-23.5 56.5t23.5 56.5t56.5 23.5t56.5 -23.5t23.5 -56.5t-23.5 -56.5t-56.5 -23.5zM447 425q-40 0 -68 28.5t-28 68t28 67.5t68 28t68 -28t28 -67.5t-28 -68t-68 -28.5zM896 533q-99 -146 -278 -322q-31 -31 -72 -69t-126 -107.5
t-150 -109.5q112 -73 244 -73q91 0 174 35.5t143 95.5t95.5 143t35.5 174q0 125 -66 233zM640.5 12q-26.5 0 -45.5 19t-19 45t19 45t45.5 19t45 -19t18.5 -45t-18.5 -45t-45 -19z" />
    <glyph glyph-name="uniE6BB" unicode="&#xe6bb;" 
d="M982 408l-409 320q-26 21 -62 21t-62 -21l-406 -321q-10 -8 -11.5 -21t6.5 -23.5t21 -12t24 6.5l13 11v-388q0 -40 34 -68t74 -28h640q38 0 61 26.5t23 69.5v389l14 -12q9 -7 20 -7q16 0 25 13q9 10 7 23t-12 22zM608 15v-67h-64h-64h-64v67v112q0 31 25 54t71 23t71 -23
t25 -54v-112z" />
    <glyph glyph-name="uniE6BC" unicode="&#xe6bc;" 
d="M640 396h-256q-13 0 -22.5 9.5t-9.5 22.5t9.5 22.5t22.5 9.5h256q13 0 22.5 -9.5t9.5 -22.5t-9.5 -22.5t-22.5 -9.5zM579 268h-195q-13 0 -22.5 9.5t-9.5 22.5t9.5 22.5t22.5 9.5h195q14 0 23 -9.5t9 -22.5t-9 -22.5t-23 -9.5zM962 364q0 104 -60 192.5t-163 140
t-224.5 51.5t-225 -51.5t-163.5 -140t-60 -192.5q0 -87 45.5 -166t127.5 -135q11 -7 24 -4.5t20.5 13.5t5 24t-13.5 20q-69 47 -107 112t-38 136q0 87 51.5 160.5t140 116.5t192.5 43t192.5 -43t140 -116.5t51.5 -160.5t-51.5 -160.5t-140 -116.5t-192.5 -43h-3l-2 -1
q-12 2 -22 -3.5t-14 -16.5q-9 -26 -94 -74q17 58 3 79q-10 16 -30 16q-13 0 -22.5 -9.5t-9.5 -22.5q0 -9 5 -16q-6 -33 -33 -100q-9 -20 7 -35q9 -9 22 -9q7 0 13 3q144 64 188 125q120 2 221 53.5t160 139.5t59 191z" />
    <glyph glyph-name="uniE6BD" unicode="&#xe6bd;" 
d="M160 204q-13 0 -22.5 9.5t-9.5 22.5v160q0 13 9.5 22.5t22.5 9.5t22.5 -9.5t9.5 -22.5v-160q0 -13 -9.5 -22.5t-22.5 -9.5zM864 -116h-640q-40 0 -68 28t-28 67v65q0 13 9.5 22.5t22.5 9.5t22.5 -9.5t9.5 -22.5v-65q0 -13 9.5 -22t22.5 -9h640q13 0 22.5 9.5t9.5 22.5
v640q0 13 -9.5 22.5t-22.5 9.5h-640q-13 0 -22.5 -5.5t-9.5 -11.5v-47q0 -13 -9.5 -22.5t-22.5 -9.5t-22.5 9.5t-9.5 22.5v47q0 33 28 57t68 24h640q40 0 68 -28t28 -68v-640q0 -40 -28 -68t-68 -28zM192 460h-96q-13 0 -22.5 9.5t-9.5 22.5t9.5 22.5t22.5 9.5h96
q13 0 22.5 -9.5t9.5 -22.5t-9.5 -22.5t-22.5 -9.5zM192 108h-96q-13 0 -22.5 9.5t-9.5 22.5t9.5 22.5t22.5 9.5h96q13 0 22.5 -9.5t9.5 -22.5t-9.5 -22.5t-22.5 -9.5zM319 11q-11 0 -19.5 7t-11.5 18q-3 13 4 24t20 14q97 23 168 31v20q-50 43 -73 107.5t-23 162.5
q0 192 192 192q46 0 81 -11.5t55.5 -30t33.5 -45t17.5 -51.5t4.5 -54q0 -171 -127 -271v-20q68 -8 166 -30q13 -3 20 -14t4 -24t-14 -20t-24 -4q-127 27 -186 31q-12 1 -21 10t-9 22v65q-1 16 13 26q114 82 114 229q0 69 -30 98.5t-98 29.5q-69 0 -98.5 -29.5t-29.5 -98.5
q0 -89 19.5 -142.5t63.5 -87.5q13 -9 13 -25v-65q0 -12 -9 -21.5t-21 -10.5q-48 -2 -187 -31q-4 -1 -8 -1z" />
    <glyph glyph-name="uniE6BF" unicode="&#xe6bf;" 
d="M546 172h-1q-22 0 -45 26l-37 43q-9 10 -8.5 24t10.5 23t23 8.5t22 -10.5l37 -40l174 179l-50 55l-72 -75q-10 -9 -23 -9t-22.5 9t-9.5 22.5t9 22.5l74 75q18 18 45 18t45 -19l50 -53q18 -19 17.5 -45.5t-18.5 -44.5l-176 -185q-24 -24 -44 -24zM352.5 57
q-26.5 0 -45.5 19l-51 49q-19 18 -19 45t19 45l179 187q25 26 45 26t45 -25l42 -45q9 -9 9 -23.5t-9.5 -23.5t-22.5 -9.5t-23 8.5l-41 41l-179 -181l51 -48l75 73q9 9 22 9t22.5 -9.5t9.5 -22.5t-9 -23l-75 -73q-18 -19 -44.5 -19zM512 -148q-185 0 -316.5 131.5
t-131.5 316.5t131.5 316.5t316.5 131.5t316.5 -131.5t131.5 -316.5t-131.5 -316.5t-316.5 -131.5zM512 684q-159 0 -271.5 -112.5t-112.5 -271.5t112.5 -271.5t271.5 -112.5t271.5 112.5t112.5 271.5t-112.5 271.5t-271.5 112.5z" />
    <glyph glyph-name="uniE6C0" unicode="&#xe6c0;" 
d="M512 44q-13 0 -22.5 9.5t-9.5 22.5v96q0 13 9.5 22.5t22.5 9.5t22.5 -9.5t9.5 -22.5v-96q0 -13 -9.5 -22.5t-22.5 -9.5zM832 -148h-640q-40 0 -68 28t-28 68v352q0 40 28 68t68 28h640q40 0 68 -28t28 -68v-352q0 -40 -28 -68t-68 -28zM192 332q-13 0 -22.5 -9.5
t-9.5 -22.5v-352q0 -13 9.5 -22.5t22.5 -9.5h640q13 0 22.5 9.5t9.5 22.5v352q0 13 -9.5 22.5t-22.5 9.5h-640zM736 332q-13 0 -22.5 9.5t-9.5 22.5v130q0 78 -61 134t-133 56q-74 0 -132 -52.5t-58 -137.5v-130q0 -13 -9.5 -22.5t-22.5 -9.5t-22.5 9.5t-9.5 22.5v130
q0 76 38 135.5t95 89t121 29.5q62 0 121 -31.5t98 -91t39 -131.5v-130q0 -13 -9.5 -22.5t-22.5 -9.5z" />
    <glyph glyph-name="uniE6C2" unicode="&#xe6c2;" 
d="M512 44q-13 0 -22.5 9.5t-9.5 22.5v96q0 13 9.5 22.5t22.5 9.5t22.5 -9.5t9.5 -22.5v-96q0 -13 -9.5 -22.5t-22.5 -9.5zM832 -148h-640q-40 0 -68 28t-28 68v384q0 40 28 68t68 28h640q40 0 68 -28t28 -68v-384q0 -40 -28 -68t-68 -28zM192 364q-13 0 -22.5 -9.5
t-9.5 -22.5v-384q0 -13 9.5 -22.5t22.5 -9.5h640q13 0 22.5 9.5t9.5 22.5v384q0 13 -9.5 22.5t-22.5 9.5h-640zM288 396q-13 0 -22.5 9.5t-9.5 22.5v65q0 76 39.5 136t99.5 89.5t127 29.5q76 0 143 -41t101 -108q6 -11 2 -24t-16 -19t-24.5 -1.5t-18.5 15.5q-26 52 -77.5 83
t-109.5 31q-79 0 -140.5 -53t-61.5 -138v-65q0 -13 -9.5 -22.5t-22.5 -9.5z" />
    <glyph glyph-name="uniE6C3" unicode="&#xe6c3;" 
d="M512 -148q-91 0 -174 35.5t-143 95.5t-95.5 143t-35.5 174q0 185 131.5 316.5t316.5 131.5q91 0 174 -35.5t143 -95.5t95.5 -143t35.5 -174t-35.5 -174t-95.5 -143t-143 -95.5t-174 -35.5zM512 684q-159 0 -271.5 -112.5t-112.5 -271.5q0 -104 51.5 -192.5t140 -140
t192.5 -51.5t192.5 51.5t140 140t51.5 192.5t-51.5 192.5t-140 140t-192.5 51.5zM416 74q-7 0 -14 3q-18 9 -18 29v322h-64q-13 0 -22.5 9.5t-9.5 22.5t9.5 22.5t22.5 9.5h96q13 0 22.5 -9.5t9.5 -22.5v-286l232 190h-8q-13 0 -22.5 9.5t-9.5 22.5t9.5 22.5t22.5 9.5h97
q23 0 30.5 -21t-10.5 -36l-353 -289q-9 -8 -20 -8z" />
    <glyph glyph-name="uniE6C5" unicode="&#xe6c5;" 
d="M719 172q-68 0 -133 35q-72 29 -126 29q-57 0 -128 -30q-15 -6 -29.5 3.5t-14.5 26.5v416q0 22 20 30q84 34 155 34t150 -35q2 0 3 -2q48 -27 101 -27q23 0 48.5 7.5t35.5 12.5l14 7q16 10 32.5 1t16.5 -28v-416q0 -17 -15 -27q-6 -4 -18.5 -10.5t-46 -16.5t-65.5 -10z
M460 300q69 0 152 -34l4 -2q5 -3 15.5 -8t37 -12.5t50.5 -7.5q40 0 81 19v348q-43 -15 -83 -15q-69 0 -131 35q-68 29 -123 29q-45 0 -111 -22v-349q62 19 108 19zM544 -116h-352v800q0 13 9.5 22.5t22.5 9.5t22.5 -9.5t9.5 -22.5v-736h288q13 0 22.5 -9.5t9.5 -22.5
t-9.5 -22.5t-22.5 -9.5zM224 -116h-63q-13 0 -22.5 9.5t-9.5 22.5t9.5 22.5t22.5 9.5h63q13 0 22.5 -9.5t9.5 -22.5t-9.5 -22.5t-22.5 -9.5z" />
    <glyph glyph-name="uniE6C9" unicode="&#xe6c9;" 
d="M641 -54q-26 0 -45 18.5t-19 45t19 45.5t45 19h65v63q0 13 -9.5 22.5t-22.5 9.5q-27 0 -66 2v31q20 16 35.5 35.5t25.5 35.5t17 40t10.5 38t5.5 42t2 38.5t1 40.5q0 2 0.5 8t0.5 9v17l-1 8q-10 212 -189 229q-14 1 -26 2h-8h-6q-13 -1 -25 -2q-181 -17 -191 -230v-7
q-1 -10 -1 -17v-11v-9v-8q6 -157 93 -257v-38q-68 -10 -123 -28.5t-93.5 -51t-38.5 -73.5q0 -33 18 -59.5t45 -43.5t64.5 -29.5t71.5 -19t72.5 -10t60 -4.5t40.5 -1h13h14q98 0 185 18q12 3 19 11.5t7 20.5v50h-66zM898 44h-98v94q0 13 -9.5 22.5t-22.5 9.5t-22.5 -9.5
t-9.5 -22.5v-94h-95q-13 0 -22.5 -9.5t-9.5 -22.5t9.5 -22.5t22.5 -9.5h95v-98q0 -14 9.5 -23t22.5 -9t22.5 9t9.5 23v98h98q13 0 22.5 9.5t9.5 22.5t-9.5 22.5t-22.5 9.5z" />
    <glyph glyph-name="uniE6CB" unicode="&#xe6cb;" 
d="M387 -148h-3q-121 11 -201.5 62t-80.5 116q0 40 38.5 74t95 54.5t124.5 30.5v13q-35 26 -58 63t-33.5 81.5t-14.5 83t-4 85.5q0 109 61 171t169 62q106 0 163 -60t57 -173q0 -52 -16.5 -114t-45.5 -116q-6 -12 -19 -15.5t-24.5 2.5t-15.5 18.5t2 24.5q25 47 40 101.5
t15 98.5q0 169 -156 169q-166 0 -166 -169q0 -45 3.5 -79.5t12.5 -73t29 -68.5t50 -49q15 -9 15 -27v-57q0 -12 -8.5 -21.5t-20.5 -10.5q-98 -10 -163.5 -41.5t-65.5 -57.5q0 -33 63.5 -69.5t160.5 -44.5q13 -1 21.5 -11.5t7.5 -23.5q-1 -12 -10.5 -20.5t-21.5 -8.5z
M852 -147q-8 0 -15 4l-113 62l-114 -62q-17 -10 -33.5 2t-13.5 31l23 135l-93 95q-14 14 -7.5 32.5t25.5 21.5l127 19l57 121q9 19 29 19q21 0 29 -19l57 -121l127 -20q19 -3 25 -21.5t-7 -32.5l-93 -95l21 -128q2 -5 2 -11q0 -13 -9.5 -22.5t-22.5 -9.5h-1zM723.5 -12
q8.5 0 15.5 -4l71 -39l-14 85q-2 16 9 28l60 61l-82 13q-16 3 -24 18l-35 76l-35 -76q-8 -15 -25 -18l-82 -12l61 -62q11 -12 8 -28l-14 -85l71 39q7 4 15.5 4z" />
    <glyph glyph-name="uniE6CC" unicode="&#xe6cc;" 
d="M401 -148q-336 0 -336 162q0 37 34 67.5t84.5 49t111.5 28.5v6q-31 24 -51.5 57t-30 73t-13 74.5t-3.5 76.5q0 99 55 155t153 56h7q97 0 152.5 -56t55.5 -155q0 -42 -3.5 -76.5t-13 -74.5t-30 -73t-51.5 -57v-6q61 -10 111.5 -28.5t84.5 -49t34 -67.5q0 -24 -8.5 -45.5
t-32 -43.5t-61 -37.5t-101.5 -25.5t-148 -10zM405 593q-144 0 -144 -147q0 -39 3 -70t11 -64.5t25.5 -60t43.5 -42.5q15 -10 15 -27v-52q0 -12 -8.5 -21t-20.5 -10q-84 -9 -142.5 -36.5t-58.5 -48.5q0 -98 272 -98q137 0 212 25.5t75 72.5q0 21 -58.5 48.5t-142.5 36.5
q-13 1 -21 10t-8 21v52q0 17 15 27q26 16 43.5 42.5t25.5 60t11 64.5t3 70q0 147 -144 147h-7zM899 48q-13 0 -22.5 9.5t-9.5 22.5t-26 33t-73.5 38.5t-97.5 23.5q-12 2 -20 11t-8 21v67q0 17 14 27q29 18 49 48t28.5 63.5t11.5 58t3 47.5q0 40 -12 67.5t-33.5 41.5
t-43.5 19.5t-48 5.5q-13 0 -22.5 9.5t-9.5 22.5t9.5 22.5t22.5 9.5q93 0 147 -53t54 -145q0 -27 -3.5 -55.5t-13.5 -67.5t-33 -76t-56 -62v-22q53 -10 103.5 -31.5t86 -55t35.5 -68.5q0 -13 -9.5 -22.5t-22.5 -9.5z" />
    <glyph glyph-name="uniE6CD" unicode="&#xe6cd;" 
d="M752 -148h-475q-39 0 -70.5 26.5t-38.5 64.5l-68 416q-7 41 18.5 71.5t67.5 30.5h657q42 0 67.5 -30.5t18.5 -71.5l-69 -415q-6 -39 -37.5 -65.5t-70.5 -26.5zM186 397q-12 0 -18.5 -7.5t-4.5 -20.5l68 -415q3 -15 16.5 -26.5t29.5 -11.5h475q15 0 29 11.5t16 26.5
l69 415q2 13 -4.5 20.5t-18.5 7.5h-657zM320.5 205q-26.5 0 -45.5 18.5t-19 45t19 45.5t45.5 19t45 -19t18.5 -45.5t-18.5 -45t-45 -18.5zM320 269v-32v32zM706.5 205q-26.5 0 -45.5 18.5t-19 45t19 45.5t45.5 19t45 -19t18.5 -45.5t-18.5 -45t-45 -18.5zM706 269v-32v32z
M738.5 492q-13.5 0 -23 9.5t-9.5 22.5q0 66 -60.5 113t-132.5 47q-75 0 -133 -44t-58 -116q0 -13 -9 -22.5t-22.5 -9.5t-23 9.5t-9.5 22.5q0 67 38 119.5t95.5 78.5t121.5 26q61 0 120 -28t98 -80.5t39 -115.5q0 -13 -9 -22.5t-22.5 -9.5z" />
    <glyph glyph-name="uniE6CE" unicode="&#xe6ce;" 
d="M743 90q1 1 5.5 4t6.5 5q11 10 10 26l-3 51l50 8q16 2 24 16q44 83 44 177v13l-1 4q-1 16 -14 25l-42 29l26 46q8 13 2 28q-40 94 -123 155q-13 9 -28 5l-49 -15l-19 48q-6 15 -21 19q-99 28 -197 0q-16 -4 -22 -19l-19 -48l-49 15q-15 4 -28 -5q-83 -61 -123 -155
q-6 -15 2 -28l26 -46l-42 -29q-13 -9 -14 -25v-5q-1 -8 -1 -12q0 -94 45 -177q7 -14 23 -16l50 -8l-3 -51q-2 -15 10 -26q2 -2 6 -4.5t6 -4.5l-86 -140q-13 -21 1 -39.5t38 -11.5l79 22l50 -57q11 -13 27 -13q3 0 7 1q20 5 26 25l41 137q7 2 11 7l37 34l37 -34q9 -9 22 -9
q3 0 5 1q58 10 114 41l46 -73l-20 5q-25 8 -43 -12l-27 -32l-5 14q-5 12 -17 18t-24.5 1.5t-18 -16.5t-0.5 -25l21 -59q7 -19 27 -23q3 -1 6 -1q16 0 27 13l50 57l80 -22q24 -7 38 11.5t1 39.5zM377 -55l-25 29q-17 20 -43 12l-20 -5l45 73q35 -20 67 -30zM534 122
q-9 9 -22 9t-22 -9l-46 -43q-67 15 -120 58l4 64q1 13 -6.5 22.5t-20.5 11.5l-63 10q-30 62 -30 130l53 37q11 7 13.5 19.5t-3.5 22.5l-33 57q30 61 83 105l62 -19q12 -4 23.5 1.5t15.5 17.5l24 60q66 15 132 0l24 -60q4 -12 15.5 -17.5t23.5 -1.5l62 19q53 -44 83 -105
l-33 -57q-6 -10 -3.5 -22.5t13.5 -19.5l53 -37q0 -68 -30 -130l-63 -10q-13 -2 -20.5 -11.5t-6.5 -22.5l4 -64q-53 -43 -120 -58zM512 158q-92 0 -157 65t-65 157t65 157t157 65t157 -65t65 -157t-65 -157t-157 -65zM512 538q-65 0 -111.5 -46.5t-46.5 -111.5t46.5 -111.5
t111.5 -46.5t111.5 46.5t46.5 111.5t-46.5 111.5t-111.5 46.5z" />
    <glyph glyph-name="uniE6D2" unicode="&#xe6d2;" 
d="M960 -17l-42 417q-5 36 -32 67t-62 40l-5 1q-19 4 -19 48v64q0 40 -27.5 68t-66.5 28h-33q-39 0 -68 -23.5t-29 -56.5v-48q0 -13 9.5 -22.5t22.5 -9.5t22.5 9.5t9.5 22.5v48q0 5 10 10.5t23 5.5h33q13 0 21.5 -9.5t8.5 -22.5v-64q0 -54 21 -79t47 -31l4 -1q16 -4 30 -20
t16 -32l32 -317h-203l-10 100q-4 38 -33.5 65t-68.5 27h-125q-28 0 -60 -28t-36 -64l-10 -100h-203l20 320q2 18 16.5 38.5t30.5 28.5l13 7q31 16 51 49t20 69v32q0 13 10 22.5t23 9.5h32q14 0 22.5 -9.5t8.5 -22.5v-61q0 -41 24 -70t57 -29h112q14 0 23 9.5t9 22.5t-9 22.5
t-23 9.5h-112q-2 0 -6 4t-7.5 12.5t-3.5 18.5v61q0 40 -27.5 68t-67.5 28h-32q-39 0 -68 -28t-29 -68v-32q0 -18 -10.5 -35.5t-25.5 -25.5l-13 -6q-31 -16 -54.5 -49.5t-27.5 -69.5l-26 -419q-5 -40 21 -69.5t67 -29.5h138q38 0 68 27t34 66l19 192q1 11 13.5 23t18.5 12
h125q14 0 25.5 -10.5t13.5 -24.5l19 -192q4 -39 34 -66t68 -27h141q41 0 67 29.5t21 69.5zM293 -52h-138q-12 0 -19 8t-5 22l2 34h201l-3 -29q-1 -14 -12.5 -24.5t-25.5 -10.5zM891 -44q-7 -8 -19 -8h-141q-14 0 -25.5 10.5t-12.5 24.5l-3 29h203l4 -36q1 -12 -6 -20z" />
    <glyph glyph-name="uniE6DB" unicode="&#xe6db;" 
d="M726 211q-4 0 -7 1q-13 3 -20 14t-5 24q6 28 6 56q0 93 -54 168q-8 11 -6 24t13 21t24 5.5t21 -13.5q66 -92 66 -205q0 -35 -7 -69q-2 -11 -11 -18.5t-20 -7.5zM886 69q-7 0 -14 3q-11 6 -15.5 18.5t0.5 24.5q41 84 41 179q0 156 -103 273q-9 10 -8 23.5t11 22t23 8
t22 -10.5q58 -66 88.5 -147.5t30.5 -168.5q0 -109 -47 -207q-8 -18 -29 -18zM864 -84q-13 0 -23 9l-703 704q-9 9 -9 22t9.5 22.5t22.5 9.5t22 -9l704 -703q9 -10 9 -23t-9.5 -22.5t-22.5 -9.5zM525 715q-34 0 -68 -35l-93 -96l212 -212v287q0 25 -14.5 40.5t-36.5 15.5z
M96 398v-196q0 -40 28 -67t68 -27h82l183 -190q34 -34 67 -34q23 0 37.5 16t14.5 41v159l-391 391q-38 -2 -63.5 -28.5t-25.5 -64.5z" />
    <glyph glyph-name="uniE6DD" unicode="&#xe6dd;" 
d="M963 -17l-49 417q-4 36 -31 67t-62 40l-5 1q-16 4 -16 48v64q0 40 -27.5 68t-66.5 28h-36q-39 0 -66.5 -23.5t-27.5 -56.5v-48q0 -1 -0.5 -2.5t0.5 -2.5q2 -7 0 -24.5t-9 -25.5q-8 -9 -22 -9h-80q-4 0 -10.5 11t-6.5 24v64q0 40 -27.5 66.5t-67.5 26.5h-32
q-40 0 -68.5 -26.5t-28.5 -66.5v-32q0 -17 -11.5 -36.5t-27.5 -27.5l-13 -6q-31 -16 -54.5 -49.5t-27.5 -69.5l-27 -419q-4 -40 22 -69.5t67 -29.5h160q38 0 68 27t34 66l19 192q1 12 10 23.5t13 11.5h96q14 0 25.5 -10.5t12.5 -24.5l20 -192q4 -39 33.5 -66t68.5 -27h163
q41 0 67 29.5t21 69.5zM352 12h-224q-13 0 -22.5 9.5t-9.5 22.5t9.5 22.5t22.5 9.5h224q13 0 22.5 -9.5t9.5 -22.5t-9.5 -22.5t-22.5 -9.5zM896 12h-224q-13 0 -22.5 9.5t-9.5 22.5t9.5 22.5t22.5 9.5h224q13 0 22.5 -9.5t9.5 -22.5t-9.5 -22.5t-22.5 -9.5z" />
    <glyph glyph-name="uniE6E0" unicode="&#xe6e0;" 
d="M516 460q-3 0 -6 1l-356 64q-11 2 -18.5 10.5t-7.5 20.5v96q0 40 28 68t68 28h576q40 0 68 -28t28 -68v-96q0 -12 -7.5 -20.5t-18.5 -10.5l-348 -64q-3 -1 -6 -1zM192 583l324 -58l316 58v69q0 13 -9.5 22.5t-22.5 9.5h-576q-13 0 -22.5 -9.5t-9.5 -22.5v-69zM800 -148
h-576q-40 0 -68 28t-28 68v480q0 13 9.5 22.5t22.5 9.5t22.5 -9.5t9.5 -22.5v-480q0 -13 9.5 -22.5t22.5 -9.5h576q13 0 22.5 9.5t9.5 22.5v480q0 13 9.5 22.5t22.5 9.5t22.5 -9.5t9.5 -22.5v-480q0 -40 -28 -68t-68 -28zM608 172q13 0 22.5 9.5t9.5 22.5t-9.5 22.5
t-22.5 9.5h-52l76 73q10 10 10 23t-9 22.5t-22.5 9.5t-22.5 -9l-77 -73l-73 73q-9 9 -22.5 9t-23 -9.5t-9.5 -22.5t10 -22l74 -74h-51q-14 0 -23 -9.5t-9 -22.5t9 -22.5t23 -9.5h64v-32h-64q-14 0 -23 -9.5t-9 -22.5t9 -22.5t23 -9.5h64v-64q0 -14 9.5 -23t22.5 -9t22.5 9
t9.5 23v64h64q13 0 22.5 9.5t9.5 22.5t-9.5 22.5t-22.5 9.5h-64v32h64z" />
    <glyph glyph-name="uniE6E1" unicode="&#xe6e1;" 
d="M896 389l-1 5q0 16 -14 25l-42 29l26 46q8 13 2 28q-40 94 -123 155q-13 10 -28 5l-49 -15l-19 48q-6 15 -21 19q-49 14 -98.5 14t-98.5 -14q-16 -4 -22 -19l-19 -48l-49 15q-15 4 -28 -5q-83 -61 -123 -155q-6 -15 2 -28l26 -46l-42 -29q-13 -9 -14 -25v-4q-1 -8 -1 -13
q0 -94 45 -177q7 -14 23 -16l50 -8l-3 -51q-1 -16 10 -26q78 -68 179 -86q2 -1 5 -1q13 0 22 9l37 34l37 -34q12 -11 27 -8q101 18 179 86q12 10 10 26l-3 51l50 8q16 2 24 16q44 83 44 177v12zM528 204q-73 0 -124.5 51.5t-51.5 124.5t51.5 124.5t124.5 51.5t124.5 -51.5
t51.5 -124.5t-51.5 -124.5t-124.5 -51.5zM778 61q-79 -64 -178 -82q-5 0 -11 1l28 -106q7 -20 27 -24h6q16 0 27 12l50 58l94 -23q23 -6 37 12.5t0 40.5zM468 -21q-3 0 -6 1q-102 18 -183 86l-82 -118q-13 -20 1 -38.5t37 -12.5l93 23l50 -57q11 -13 27 -13q3 0 7 1
q20 4 26 25l31 103h-1z" />
    <glyph glyph-name="uniE6E2" unicode="&#xe6e2;" 
d="M307 361q-73 0 -124.5 51.5t-51.5 124.5t51.5 124.5t124.5 51.5t124.5 -51.5t51.5 -124.5t-51.5 -124.5t-124.5 -51.5zM306.5 649q-46.5 0 -79 -33t-32.5 -79t32.5 -79t79 -33t79.5 33t33 79t-33 79t-79.5 33zM719.5 361q-72.5 0 -124.5 51.5t-52 124.5t52 124.5
t124.5 51.5t124 -51.5t51.5 -124.5t-51.5 -124.5t-124 -51.5zM719.5 649q-46.5 0 -79.5 -33t-33 -79t33 -79t79.5 -33t79 33t32.5 79t-32.5 79t-79 33zM303.5 -89q-72.5 0 -124 51.5t-51.5 124t51.5 124.5t124 52t124.5 -52t52 -124.5t-52 -124t-124.5 -51.5zM303.5 199
q-46.5 0 -79 -33t-32.5 -79.5t32.5 -79t79 -32.5t79.5 32.5t33 79t-33 79.5t-79.5 33zM923 -95l-66 69q41 48 41 113q0 72 -51.5 124t-124 52t-124.5 -52t-52 -124q0 -67 45.5 -117t112.5 -58h4q12 0 21 8t10 20q2 13 -6 23.5t-21 12.5q-43 5 -72.5 37t-29.5 74q0 46 33 79
t79.5 33t79 -33t32.5 -79q0 -55 -43 -89q-10 -8 -11.5 -21t6.5 -23q4 -6 11 -9q1 -1 1.5 -2.5t1.5 -2.5l77 -79q9 -10 23 -10q13 0 22 9q10 9 10 22t-9 23z" />
    <glyph glyph-name="uniE6E3" unicode="&#xe6e3;" 
d="M864 428h-189q12 28 19.5 83t0.5 107q-5 45 -30 77.5t-63 45.5q-29 10 -56.5 5.5t-43.5 -20.5q-12 -12 -22 -35t-15.5 -41t-13.5 -52q-17 -70 -28 -89q-20 -34 -57.5 -57.5t-51.5 -23.5h-90q-13 0 -22.5 -9.5t-9.5 -22.5v-448q0 -13 9.5 -22.5t22.5 -9.5h87q8 0 45 -16
t91.5 -32t104.5 -16h216q33 0 68.5 13t51 38.5t44 207.5t28.5 220q0 39 -31 68t-65 29zM96 428q-13 0 -22.5 -9.5t-9.5 -22.5v-448q0 -13 9.5 -22.5t22.5 -9.5t22.5 9.5t9.5 22.5v448q0 13 -9.5 22.5t-22.5 9.5z" />
    <glyph glyph-name="uniE6E4" unicode="&#xe6e4;" 
d="M512 746q-91 0 -173.5 -35.5t-142 -95t-95 -142t-35.5 -173.5t35.5 -173.5t95 -142t142 -95t173.5 -35.5t173.5 35.5t142 95t95 142t35.5 173.5t-35.5 173.5t-95 142t-142 95t-173.5 35.5zM544 76q0 -13 -9.5 -22.5t-22.5 -9.5t-22.5 9.5t-9.5 22.5v288q0 13 9.5 22.5
t22.5 9.5t22.5 -9.5t9.5 -22.5v-288zM512 460q-20 0 -34 14t-14 34t14 34t34 14t34 -14t14 -34t-14 -34t-34 -14z" />
    <glyph glyph-name="uniE6E5" unicode="&#xe6e5;" 
d="M512 -146q-91 0 -173.5 35.5t-142 95t-95 142t-35.5 173.5t35.5 173.5t95 142t142 95t173.5 35.5t173.5 -35.5t142 -95t95 -142t35.5 -173.5t-35.5 -173.5t-95 -142t-142 -95t-173.5 -35.5zM512 682q-104 0 -192 -51t-139 -139t-51 -192t51 -192t139 -139t192 -51t192 51
t139 139t51 192t-51 192t-139 139t-192 51zM512 508zM464 508q0 20 14 34t34 14t34 -14t14 -34t-14 -34t-34 -14t-34 14t-14 34zM512 44q-13 0 -22.5 9.5t-9.5 22.5v288q0 13 9.5 22.5t22.5 9.5t22.5 -9.5t9.5 -22.5v-288q0 -13 -9.5 -22.5t-22.5 -9.5z" />
    <glyph glyph-name="uniE6EA" unicode="&#xe6ea;" 
d="M952 318l-384 419q-15 17 -35.5 9t-20.5 -30v-225q-112 -7 -203 -63.5t-156 -158.5q-30 -48 -52.5 -104.5t-28 -78.5t-7.5 -36q-5 -23 15 -34t37 4q5 5 19 15.5t52.5 33.5t82 42.5t109 36.5t132.5 20v-284q0 -22 20 -30q6 -2 12 -2q14 0 23 10l384 413q9 9 9 21.5
t-8 21.5z" />
    <glyph glyph-name="uniE6EB" unicode="&#xe6eb;" 
d="M544 -148q-6 0 -12 2q-20 8 -20 30v287q-67 -3 -132.5 -20.5t-108.5 -36.5t-82.5 -43.5t-52 -34.5t-18.5 -15q-18 -16 -38 -5t-15 34q2 14 7.5 36t28 78.5t52.5 104.5q69 109 168.5 166t222.5 57q13 0 22.5 -9.5t9.5 -22.5t-9.5 -22.5t-22.5 -9.5q-68 0 -128 -21
t-100.5 -52t-74.5 -74.5t-53 -80t-35 -75.5q182 111 391 111q13 0 22.5 -9.5t9.5 -22.5v-238l308 330l-308 335v-43q0 -13 -9.5 -22.5t-22.5 -9.5t-22.5 9.5t-9.5 22.5v125q0 21 20.5 29t35.5 -8l384 -416q8 -9 8 -21.5t-9 -21.5l-384 -413q-9 -10 -23 -10z" />
    <glyph glyph-name="uniE6EC" unicode="&#xe6ec;" 
d="M512 748q-185 0 -316.5 -131.5t-131.5 -316.5t131.5 -316.5t316.5 -131.5t316.5 131.5t131.5 316.5t-131.5 316.5t-316.5 131.5zM641 236q13 0 22.5 -9.5t9.5 -22.5t-9.5 -22.5t-22.5 -9.5h-97v-95q0 -13 -9.5 -22.5t-22.5 -9.5t-22.5 9.5t-9.5 22.5v95h-95
q-13 0 -22.5 9.5t-9.5 22.5t9.5 22.5t22.5 9.5h95v64h-95q-13 0 -22.5 9.5t-9.5 22.5t9.5 22.5t22.5 9.5h95v20l-118 118q-10 10 -9.5 23t9.5 22.5t22.5 9.5t22.5 -9l108 -108l101 107q10 10 23 10t22.5 -9t10 -22t-9.5 -23l-118 -124v-15h97q13 0 22.5 -9.5t9.5 -22.5
t-9.5 -22.5t-22.5 -9.5h-97v-64h97z" />
    <glyph glyph-name="uniE6ED" unicode="&#xe6ed;" 
d="M512 748q-185 0 -316.5 -131.5t-131.5 -316.5t131.5 -316.5t316.5 -131.5t316.5 131.5t131.5 316.5t-131.5 316.5t-316.5 131.5zM512 -84q-159 0 -271.5 112.5t-112.5 271.5t112.5 271.5t271.5 112.5t271.5 -112.5t112.5 -271.5t-112.5 -271.5t-271.5 -112.5zM641 300
q13 0 22.5 9.5t9.5 22.5t-9.5 22.5t-22.5 9.5h-97v15l119 124q9 10 8.5 23t-10 22t-22.5 9t-22 -10l-102 -107l-107 108q-10 9 -23 9t-22.5 -9.5t-10 -22.5t9.5 -23l118 -118v-20h-95q-13 0 -22.5 -9.5t-9.5 -22.5t9.5 -22.5t22.5 -9.5h95v-64h-95q-13 0 -22.5 -9.5
t-9.5 -22.5t9.5 -22.5t22.5 -9.5h95v-95q0 -13 9.5 -22.5t22.5 -9.5t22.5 9.5t9.5 22.5v95h97q13 0 22.5 9.5t9.5 22.5t-9.5 22.5t-22.5 9.5h-97v64h97z" />
    <glyph glyph-name="uniE6EE" unicode="&#xe6ee;" 
d="M859 -52h-694q-42 0 -71.5 29.5t-29.5 71.5v502q0 42 29.5 71.5t71.5 29.5h694q42 0 71.5 -29.5t29.5 -71.5v-502q0 -42 -29.5 -71.5t-71.5 -29.5zM165 588q-15 0 -26 -11t-11 -26v-502q0 -15 11 -26t26 -11h694q15 0 26 11t11 26v502q0 15 -11 26t-26 11h-694zM800 396
h-576q-13 0 -22.5 9.5t-9.5 22.5t9.5 22.5t22.5 9.5h576q13 0 22.5 -9.5t9.5 -22.5t-9.5 -22.5t-22.5 -9.5zM320 76h-96q-13 0 -22.5 9.5t-9.5 22.5t9.5 22.5t22.5 9.5h96q13 0 22.5 -9.5t9.5 -22.5t-9.5 -22.5t-22.5 -9.5z" />
    <glyph glyph-name="uniE6EF" unicode="&#xe6ef;" 
d="M512 106q-79 0 -135.5 56.5t-56.5 135.5v256q0 79 56.5 135.5t135.5 56.5t135.5 -56.5t56.5 -135.5v-256q0 -79 -56.5 -135.5t-135.5 -56.5zM512 682q-53 0 -90.5 -37.5t-37.5 -90.5v-256q0 -53 37.5 -90.5t90.5 -37.5t90.5 37.5t37.5 90.5v256q0 53 -37.5 90.5
t-90.5 37.5zM864 332v128q0 13 -9.5 22.5t-22.5 9.5t-22.5 -9.5t-9.5 -22.5v-128q0 -120 -84.5 -205t-203.5 -85t-203.5 85t-84.5 205v128q0 13 -9.5 22.5t-22.5 9.5t-22.5 -9.5t-9.5 -22.5v-128q0 -138 92.5 -239t227.5 -114v-63h-192q-13 0 -22.5 -9.5t-9.5 -22.5
t9.5 -22.5t22.5 -9.5h448q13 0 22.5 9.5t9.5 22.5t-9.5 22.5t-22.5 9.5h-192v63q135 13 227.5 114t92.5 239z" />
    <glyph glyph-name="uniE6F0" unicode="&#xe6f0;" 
d="M512 106q79 0 135.5 56.5t56.5 135.5v256q0 79 -56.5 135.5t-135.5 56.5t-135.5 -56.5t-56.5 -135.5v-256q0 -79 56.5 -135.5t135.5 -56.5zM864 332v128q0 13 -9.5 22.5t-22.5 9.5t-22.5 -9.5t-9.5 -22.5v-128q0 -120 -84.5 -205t-203.5 -85t-203.5 85t-84.5 205v128
q0 13 -9.5 22.5t-22.5 9.5t-22.5 -9.5t-9.5 -22.5v-128q0 -138 92.5 -239t227.5 -114v-63h-192q-13 0 -22.5 -9.5t-9.5 -22.5t9.5 -22.5t22.5 -9.5h448q13 0 22.5 9.5t9.5 22.5t-9.5 22.5t-22.5 9.5h-192v63q135 13 227.5 114t92.5 239z" />
    <glyph glyph-name="uniE6F1" unicode="&#xe6f1;" 
d="M723 -150q-25 0 -48 23l-124 126q-1 1 -3 2q-10 13 -15.5 21.5t-11.5 25.5t-6 36q0 50 35 85t85 35q38 0 69 -22l21 -14l4 4q35 32 82 32q50 0 85 -35t35 -85q0 -47 -35 -84l-125 -127q-23 -23 -48 -23zM597 42l124 -124l2 -2q1 1 3 2l124 126q17 18 17 40
q0 23 -16.5 39.5t-39.5 16.5q-22 0 -38 -15l-22 -22q-8 -8 -19.5 -9t-21.5 6l-43 30q-14 10 -32 10q-23 0 -39.5 -16.5t-16.5 -39.5q0 -12 3.5 -20t14.5 -22zM387 -150q-2 0 -3 1q-122 10 -203.5 61t-81.5 117q0 31 26.5 58.5t70.5 47t91.5 32.5t97.5 21v12q-40 30 -68 74
t-40 91t-16.5 81.5t-4.5 66.5q0 110 61 171.5t169 61.5q107 0 163.5 -60t56.5 -173q0 -52 -16.5 -113.5t-45.5 -116.5q-6 -11 -18.5 -15t-24.5 2t-15.5 19t2.5 25q25 46 39.5 100.5t14.5 98.5q0 169 -156 169q-166 0 -166 -169q0 -28 4 -58.5t14.5 -72t35.5 -78.5t61 -60
q14 -10 14 -27v-58q0 -12 -8 -21t-20 -11q-104 -10 -181 -42.5t-77 -55.5q0 -33 64 -69.5t163 -45.5q13 -1 21.5 -11t7.5 -23t-10.5 -21.5t-21.5 -8.5z" />
    <glyph glyph-name="uniE6F2" unicode="&#xe6f2;" 
d="M244 187q-13 0 -22 9t-9.5 22.5t8.5 22.5q59 60 135 92.5t160 32.5q82 0 156.5 -31t133.5 -89q9 -10 9 -23t-9.5 -22.5t-22.5 -9.5t-23 9q-101 102 -244 102q-71 0 -135 -27.5t-114 -77.5q-9 -10 -23 -10zM97.5 350q-13.5 0 -22.5 9t-9 22.5t9 22.5q88 89 202 136.5
t239 47.5q123 0 235.5 -46.5t200.5 -133.5q10 -9 10 -22t-9.5 -22.5t-22.5 -9.5t-23 9q-79 78 -180 119.5t-211 41.5q-113 0 -215 -42.5t-181 -122.5q-9 -9 -22.5 -9zM511 -21q-12 0 -21 9l-96 88q-9 9 -9.5 22t7.5 23q48 55 119 55q76 0 123 -60q8 -10 7 -22.5t-11 -21.5
l-98 -85q-9 -8 -21 -8zM464 99l48 -45l50 43q-22 14 -49 14.5t-49 -12.5z" />
    <glyph glyph-name="uniE6F3" unicode="&#xe6f3;" 
d="M769 108q-54 0 -91 -38l-310 172q15 28 15 58q0 17 -6 36l305 189q37 -33 85 -33q53 0 90.5 37.5t37.5 90.5t-37.5 90.5t-90.5 37.5t-90.5 -37.5t-37.5 -90.5q0 -20 8 -41l-302 -188q-38 37 -90 37q-53 0 -90.5 -37.5t-37.5 -90.5t37.5 -90.5t90.5 -37.5q38 0 70 21
l321 -179q-5 -18 -5 -34q0 -53 37.5 -90.5t90.5 -37.5t90.5 37.5t37.5 90.5t-37.5 90.5t-90.5 37.5zM767.5 684q26.5 0 45 -19t18.5 -45.5t-18.5 -45t-45 -18.5t-45.5 18.5t-19 45t19 45.5t45.5 19zM191 300.5q0 26.5 19 45t45.5 18.5t45 -18.5t18.5 -45t-18.5 -45.5
t-45 -19t-45.5 19t-19 45.5zM768.5 -84q-26.5 0 -45 19t-18.5 45.5t18.5 45t45 18.5t45.5 -18.5t19 -45t-19 -45.5t-45.5 -19z" />
    <glyph glyph-name="uniE6FC" unicode="&#xe6fc;" 
d="M512 140q-13 0 -22.5 9.5t-9.5 22.5v96q0 13 9.5 22.5t22.5 9.5t22.5 -9.5t9.5 -22.5v-96q0 -13 -9.5 -22.5t-22.5 -9.5zM828 603q-9 17 -28 17h-576q-19 0 -28 -17t1 -33l123 -184v-150v-32v-256q0 -40 28 -68t68 -28h192q40 0 68 28t28 68v245v191l123 186q10 16 1 33z
M645 411q-5 -8 -5 -17v-157v-1v-288q0 -13 -9.5 -22.5t-22.5 -9.5h-192q-13 0 -22.5 9.5t-9.5 22.5v256v32v160q0 10 -5 18l-95 142h457zM608 652h-192q-13 0 -22.5 9.5t-9.5 22.5t9.5 22.5t22.5 9.5h192q13 0 22.5 -9.5t9.5 -22.5t-9.5 -22.5t-22.5 -9.5z" />
    <glyph glyph-name="uniE6FD" unicode="&#xe6fd;" 
d="M512 140q-13 0 -22.5 9.5t-9.5 22.5v96q0 13 9.5 22.5t22.5 9.5t22.5 -9.5t9.5 -22.5v-96q0 -13 -9.5 -22.5t-22.5 -9.5zM884.5 675q-10.5 8 -23.5 6t-21 -12l-193 -256q-7 -9 -7 -19v-158v-288q0 -13 -9.5 -22.5t-22.5 -9.5h-192q-13 0 -22.5 9.5t-9.5 22.5v189v99v160
q0 11 -6 19l-190 256q-8 11 -21 13t-24 -6t-12.5 -21t5.5 -24l184 -248v-149v-99v-189q0 -40 28 -68t68 -28h192q40 0 68 28t28 68v192v243l187 247q8 11 6 24t-12.5 21zM512 524q-13 0 -22.5 9.5t-9.5 22.5v160q0 13 9.5 22.5t22.5 9.5t22.5 -9.5t9.5 -22.5v-160
q0 -13 -9.5 -22.5t-22.5 -9.5z" />
    <glyph glyph-name="uniE6FE" unicode="&#xe6fe;" 
d="M954 -2l-137 180q79 76 79 185q0 106 -75 181t-181 75t-181 -75t-75 -181t75 -181t181 -75q67 0 125 33l138 -181q10 -12 26 -12q11 0 19 6q11 8 12.5 21.5t-6.5 23.5zM448 363.5q0 79.5 56.5 135.5t136 56t135.5 -56t56 -135.5t-56 -136t-135.5 -56.5t-136 56.5
t-56.5 136zM320 492h-192q-13 0 -22.5 9.5t-9.5 22.5t9.5 22.5t22.5 9.5h192q13 0 22.5 -9.5t9.5 -22.5t-9.5 -22.5t-22.5 -9.5zM256 236h-128q-13 0 -22.5 9.5t-9.5 22.5t9.5 22.5t22.5 9.5h128q13 0 22.5 -9.5t9.5 -22.5t-9.5 -22.5t-22.5 -9.5zM480 12h-352
q-13 0 -22.5 9.5t-9.5 22.5t9.5 22.5t22.5 9.5h352q13 0 22.5 -9.5t9.5 -22.5t-9.5 -22.5t-22.5 -9.5z" />
    <glyph glyph-name="uniE703" unicode="&#xe703;" 
d="M792.5 326.5q-9.5 9.5 -22.5 9.5t-22 -10l-204 -203v561q0 13 -9.5 22.5t-22.5 9.5t-22.5 -9.5t-9.5 -22.5v-563l-234 235q-9 10 -22.5 10t-23 -9.5t-9.5 -22.5t10 -23l287 -289q5 -5 11 -7q6 -3 13 -3q17 0 26 15l255 254q9 9 9 22.5t-9.5 23zM864 -116h-704
q-13 0 -22.5 9.5t-9.5 22.5t9.5 22.5t22.5 9.5h704q13 0 22.5 -9.5t9.5 -22.5t-9.5 -22.5t-22.5 -9.5z" />
    <glyph glyph-name="uniE704" unicode="&#xe704;" 
d="M736 -180h-448q-40 0 -68 28t-28 68v768q0 40 28 68t68 28h448q40 0 68 -28t28 -68v-768q0 -40 -28 -68t-68 -28zM288 716q-13 0 -22.5 -9.5t-9.5 -22.5v-768q0 -13 9.5 -22.5t22.5 -9.5h448q13 0 22.5 9.5t9.5 22.5v768q0 13 -9.5 22.5t-22.5 9.5h-448zM512 -84
q-26 0 -45 18.5t-19 45t19 45.5t45 19t45 -19t19 -45.5t-19 -45t-45 -18.5zM512 -20v-32v32zM704 76h-384q-13 0 -22.5 9.5t-9.5 22.5v544q0 13 9.5 22.5t22.5 9.5h384q13 0 22.5 -9.5t9.5 -22.5v-544q0 -13 -9.5 -22.5t-22.5 -9.5zM352 140h320v480h-320v-480z" />
    <glyph glyph-name="uniE705" unicode="&#xe705;" 
d="M512 -52v32v-32zM736 748h-448q-26 0 -45 -19t-19 -45v-768q0 -26 19 -45t45 -19h448q26 0 45 19t19 45v768q0 26 -19 45t-45 19zM512 -84q-26 0 -45 18.5t-19 45t19 45.5t45 19t45 -19t19 -45.5t-19 -45t-45 -18.5zM704 108h-384v544h384v-544z" />
    <glyph glyph-name="uniE706" unicode="&#xe706;" 
d="M672 -20h-448q-40 0 -68 28t-28 68v576q0 40 28 68t68 28h448q40 0 68 -28t28 -68v-576q0 -40 -28 -68t-68 -28zM224 684q-13 0 -22.5 -9.5t-9.5 -22.5v-576q0 -13 9.5 -22.5t22.5 -9.5h448q13 0 22.5 9.5t9.5 22.5v576q0 13 -9.5 22.5t-22.5 9.5h-448zM800 -148h-480
q-13 0 -22.5 9.5t-9.5 22.5t9.5 22.5t22.5 9.5h480q13 0 22.5 9.5t9.5 22.5v608q0 13 9.5 22.5t22.5 9.5t22.5 -9.5t9.5 -22.5v-608q0 -40 -28 -68t-68 -28zM544 492h-256q-13 0 -22.5 9.5t-9.5 22.5t9.5 22.5t22.5 9.5h256q13 0 22.5 -9.5t9.5 -22.5t-9.5 -22.5t-22.5 -9.5
zM608 332h-320q-13 0 -22.5 9.5t-9.5 22.5t9.5 22.5t22.5 9.5h320q13 0 22.5 -9.5t9.5 -22.5t-9.5 -22.5t-22.5 -9.5zM608 172h-320q-13 0 -22.5 9.5t-9.5 22.5t9.5 22.5t22.5 9.5h320q13 0 22.5 -9.5t9.5 -22.5t-9.5 -22.5t-22.5 -9.5z" />
    <glyph glyph-name="uniE707" unicode="&#xe707;" 
d="M576 652h-128q-13 0 -22.5 9.5t-9.5 22.5t9.5 22.5t22.5 9.5h128q13 0 22.5 -9.5t9.5 -22.5t-9.5 -22.5t-22.5 -9.5zM819 466l36 35q9 10 9 23t-9.5 22.5t-22.5 9.5t-23 -9l-33 -33q-52 50 -120.5 78t-143.5 28q-159 0 -271.5 -112.5t-112.5 -271.5t112.5 -271.5
t271.5 -112.5t271.5 112.5t112.5 271.5q0 127 -77 230zM480 556q0 13 9.5 22.5t22.5 9.5t22.5 -9.5t9.5 -22.5v-32q0 -13 -9.5 -22.5t-22.5 -9.5t-22.5 9.5t-9.5 22.5v32zM224 204h-32q-13 0 -22.5 9.5t-9.5 22.5t9.5 22.5t22.5 9.5h32q13 0 22.5 -9.5t9.5 -22.5t-9.5 -22.5
t-22.5 -9.5zM544 -84q0 -13 -9.5 -22.5t-22.5 -9.5t-22.5 9.5t-9.5 22.5v32q0 13 9.5 22.5t22.5 9.5t22.5 -9.5t9.5 -22.5v-32zM692 339l-160 -128q-9 -7 -20 -7q-15 0 -25 12q-8 10 -6.5 23.5t11.5 21.5l160 128q10 8 23.5 6.5t21.5 -11.5t6.5 -23.5t-11.5 -21.5zM832 204
h-32q-13 0 -22.5 9.5t-9.5 22.5t9.5 22.5t22.5 9.5h32q13 0 22.5 -9.5t9.5 -22.5t-9.5 -22.5t-22.5 -9.5z" />
    <glyph glyph-name="uniE708" unicode="&#xe708;" 
d="M576 652h-128q-13 0 -22.5 9.5t-9.5 22.5t9.5 22.5t22.5 9.5h128q13 0 22.5 -9.5t9.5 -22.5t-9.5 -22.5t-22.5 -9.5zM819 466l36 35q9 10 9 23t-9.5 22.5t-22.5 9.5t-23 -9l-33 -33q-52 50 -120.5 78t-143.5 28q-159 0 -271.5 -112.5t-112.5 -271.5t112.5 -271.5
t271.5 -112.5t271.5 112.5t112.5 271.5q0 127 -77 230zM544 -82v30q0 13 -9.5 22.5t-22.5 9.5t-22.5 -9.5t-9.5 -22.5v-30q-113 11 -194 92t-92 194h30q13 0 22.5 9.5t9.5 22.5t-9.5 22.5t-22.5 9.5h-30q11 113 92 194t194 92v-30q0 -13 9.5 -22.5t22.5 -9.5t22.5 9.5
t9.5 22.5v30q113 -11 194 -92t92 -194h-30q-13 0 -22.5 -9.5t-9.5 -22.5t9.5 -22.5t22.5 -9.5h30q-11 -113 -92 -194t-194 -92zM652 389l-160 -128q-10 -8 -11.5 -21.5t6.5 -23.5q10 -12 25 -12q11 0 20 7l160 128q10 8 11.5 21.5t-6.5 23.5t-21.5 11.5t-23.5 -6.5z" />
    <glyph glyph-name="uniE709" unicode="&#xe709;" 
d="M890 62q-6 8 -13.5 19.5t-28.5 47t-36.5 68.5t-28 76t-12.5 77q0 118 -45.5 189t-117.5 98v15q0 40 -28 68t-68 28t-68 -28t-28 -68v-15q-72 -27 -117.5 -98t-45.5 -189q0 -34 -12.5 -77t-28.5 -76t-36 -67.5t-28.5 -47.5t-13.5 -19q-8 -12 -5 -26t16 -21t35.5 -18
t82 -33t115.5 -34q16 -50 52.5 -80.5t81.5 -30.5t81 30.5t53 80.5q56 12 115.5 34t82 32.5t35.5 17.5t16 21.5t-5 25.5zM480 652q0 13 9.5 22.5t22.5 9.5t22.5 -9.5t9.5 -22.5v-1q-11 1 -21 1h-22q-10 0 -21 -1v1zM512 -116q-34 0 -58 35q31 -3 58 -3t58 3q-24 -35 -58 -35z
" />
    <glyph glyph-name="uniE70A" unicode="&#xe70a;" 
d="M890 62q-5 7 -13.5 19.5t-28.5 47t-36 68t-28.5 76.5t-12.5 77q0 118 -45.5 189t-117.5 98v15q0 40 -28 68t-68 28t-68 -28t-28 -68v-17q-19 -13 -12 -35q4 -12 16 -18.5t24 -2.5q27 9 57 9h22q86 0 135 -63t49 -175q0 -122 110 -294q-167 -76 -305 -76q-137 0 -305 77
q110 171 110 293q0 94 35 154q6 11 3 24t-14.5 19.5t-24.5 3t-20 -14.5q-43 -75 -43 -186q0 -34 -12.5 -77t-28.5 -76t-36 -67.5t-28.5 -47.5t-13.5 -19q-8 -12 -5 -26t16 -21t35.5 -18t82 -33t115.5 -34q16 -50 52.5 -80.5t81.5 -30.5t81 30.5t53 80.5q56 12 115.5 34
t82 32.5t35.5 17.5t16 21t-5 26zM501 652q-2 0 -21 -2v2q0 13 9.5 22.5t22.5 9.5t22.5 -9.5t9.5 -22.5v-1q-11 1 -21 1h-22zM512 -116q-34 0 -58 35q31 -3 58 -3t58 3q-24 -35 -58 -35z" />
    <glyph glyph-name="uniE70E" unicode="&#xe70e;" 
d="M928 524h-99q3 37 3 67q0 29 -3 63q0 12 -9.5 20.5t-21.5 8.5h-571q-13 0 -22 -8.5t-10 -20.5q-3 -35 -3 -63q0 -30 3 -67h-99q-13 0 -22.5 -9.5t-9.5 -22.5q0 -99 53.5 -161.5t138.5 -62.5q1 0 2.5 0.5t2.5 0.5q39 -81 96 -131.5t123 -60.5v-1v-128h-128
q-13 0 -22.5 -9.5t-9.5 -22.5t9.5 -22.5t22.5 -9.5h320q13 0 22.5 9.5t9.5 22.5t-9.5 22.5t-22.5 9.5h-128v128v1q66 10 123 60.5t97 131.5l2 -1h2q85 0 138.5 62.5t53.5 161.5q0 13 -9.5 22.5t-22.5 9.5zM130 460h72q11 -67 31 -126q-41 8 -68.5 41.5t-34.5 84.5zM791 334
q20 58 31 126h72q-7 -51 -34.5 -84.5t-68.5 -41.5z" />
    <glyph glyph-name="uniE70F" unicode="&#xe70f;" 
d="M928 524h-99q3 37 3 67q0 29 -3 63q0 12 -9.5 20.5t-21.5 8.5h-571q-13 0 -22 -8.5t-10 -20.5q-3 -35 -3 -63q0 -30 3 -67h-99q-13 0 -22.5 -9.5t-9.5 -22.5q0 -99 53.5 -161.5t138.5 -62.5q1 0 2.5 0.5t2.5 0.5q39 -81 96 -131.5t123 -60.5v-1v-128h-128
q-13 0 -22.5 -9.5t-9.5 -22.5t9.5 -22.5t22.5 -9.5h320q13 0 22.5 9.5t9.5 22.5t-9.5 22.5t-22.5 9.5h-128v128v1q66 10 123 60.5t97 131.5l2 -1h2q85 0 138.5 62.5t53.5 161.5q0 13 -9.5 22.5t-22.5 9.5zM130 460h72q11 -67 31 -126q-41 8 -68.5 41.5t-34.5 84.5zM512 139
q-68 0 -127 61.5t-94 165.5t-35 225q0 14 1 28h510q1 -15 1 -28q0 -121 -35 -225t-94 -165.5t-127 -61.5zM791 334q20 58 31 126h72q-7 -51 -34.5 -84.5t-68.5 -41.5z" />
    <glyph glyph-name="uniE718" unicode="&#xe718;" 
d="M864 556q-15 0 -24 10t-8.5 23.5t10.5 21.5l33 30q10 9 23 8t22 -10.5t8 -23t-10 -22.5l-33 -29q-9 -8 -21 -8zM160 556q-12 0 -21 8l-33 29q-9 9 -10 22.5t8 23t22 10.5t23 -8l33 -30q10 -8 10.5 -21.5t-8.5 -23.5t-24 -10zM512 684q-13 0 -22.5 9.5t-9.5 22.5v32
q0 13 9.5 22.5t22.5 9.5t22.5 -9.5t9.5 -22.5v-32q0 -13 -9.5 -22.5t-22.5 -9.5zM512 662q-87 0 -160.5 -42.5t-116.5 -116.5t-43 -161q0 -31 7.5 -62t16.5 -51.5t21.5 -40t17.5 -26t9 -10.5q22 -25 39 -68.5t17 -76.5v-56q0 -53 37.5 -90.5t90.5 -37.5h128q53 0 90.5 37.5
t37.5 90.5v56q0 33 17 76.5t39 68.5q4 4 9.5 10.5t17.5 26t21 40t16.5 51.5t7.5 62q0 87 -43 161t-116.5 116.5t-160.5 42.5zM576 -52h-128q-13 0 -22.5 9.5t-9.5 22.5t9.5 22.5t22.5 9.5h128q13 0 22.5 -9.5t9.5 -22.5t-9.5 -22.5t-22.5 -9.5zM650 238q-5 -2 -10 -2
q-23 0 -30 22l-16 47l-59 -60q-10 -9 -23 -9t-23 9l-59 60l-16 -47q-4 -13 -16 -19t-24.5 -1.5t-18.5 16.5t-1 24l32 96q5 17 22.5 21t30.5 -8l73 -74l73 74q13 12 30.5 8t22.5 -21l32 -96q5 -12 -1 -24t-19 -16z" />
    <glyph glyph-name="uniE719" unicode="&#xe719;" 
d="M576 -177h-128q-53 0 -90.5 37.5t-37.5 90.5v56q0 33 -17 76.5t-39 68.5q-4 4 -9 10.5t-17.5 26t-21.5 40t-16.5 51.5t-7.5 62q0 87 43 161t116.5 116.5t160.5 42.5t160.5 -42.5t116.5 -116.5t43 -161q0 -31 -7.5 -62t-16.5 -51.5t-21.5 -40t-17.5 -26t-9 -10.5
q-22 -25 -39 -68.5t-17 -76.5v-56q0 -53 -37.5 -90.5t-90.5 -37.5zM512 598q-106 0 -181 -75t-75 -181q0 -38 15 -76t24.5 -51.5t15.5 -19.5q31 -33 52 -88t21 -100v-56q0 -26 19 -45t45 -19h128q26 0 45 19t19 45v56q0 45 21 100t52 88q7 8 16 20.5t24 50.5t15 76
q0 106 -75 181t-181 75zM640 236q-23 0 -30 22l-16 47l-59 -60q-10 -9 -23 -9t-23 9l-59 60l-16 -47q-4 -13 -16 -19t-24.5 -1.5t-18.5 16.5t-1 24l32 96q5 17 22.5 21t30.5 -8l73 -74l73 74q13 12 30.5 8t22.5 -21l32 -96q5 -12 -1 -24t-19 -16q-5 -2 -10 -2zM864 556
q-15 0 -24 10t-8.5 23.5t10.5 21.5l33 30q10 9 23 8t22 -10.5t8 -23t-10 -22.5l-33 -29q-9 -8 -21 -8zM160 556q-12 0 -21 8l-33 29q-9 9 -10 22.5t8 23t22 10.5t23 -8l33 -30q10 -8 10.5 -21.5t-8.5 -23.5t-24 -10zM512 684q-13 0 -22.5 9.5t-9.5 22.5v32q0 13 9.5 22.5
t22.5 9.5t22.5 -9.5t9.5 -22.5v-32q0 -13 -9.5 -22.5t-22.5 -9.5zM576 -52h-128q-13 0 -22.5 9.5t-9.5 22.5t9.5 22.5t22.5 9.5h128q13 0 22.5 -9.5t9.5 -22.5t-9.5 -22.5t-22.5 -9.5z" />
    <glyph glyph-name="uniE71A" unicode="&#xe71a;" 
d="M864 396q0 146 -103 249t-249 103t-249 -103t-103 -249q0 -137 92.5 -237.5t227.5 -112.5v-2v-64h-128q-13 0 -22.5 -9.5t-9.5 -22.5t9.5 -22.5t22.5 -9.5h128v-32q0 -13 9.5 -22.5t22.5 -9.5t22.5 9.5t9.5 22.5v32h128q13 0 22.5 9.5t9.5 22.5t-9.5 22.5t-22.5 9.5h-128
v64v2q135 12 227.5 112.5t92.5 237.5zM512 108q-119 0 -203.5 84.5t-84.5 203.5t84.5 203.5t203.5 84.5t203.5 -84.5t84.5 -203.5t-84.5 -203.5t-203.5 -84.5z" />
    <glyph glyph-name="uniE71B" unicode="&#xe71b;" 
d="M736 460q-13 0 -22.5 -9.5t-9.5 -22.5v-96h-96q-13 0 -22.5 -9.5t-9.5 -22.5t9.5 -22.5t22.5 -9.5h128q13 0 22.5 9.5t9.5 22.5v128q0 13 -9.5 22.5t-22.5 9.5zM736 140h-448q-13 0 -22.5 9.5t-9.5 22.5t9.5 22.5t22.5 9.5h448q13 0 22.5 -9.5t9.5 -22.5t-9.5 -22.5
t-22.5 -9.5zM480 268h-32q-13 0 -22.5 9.5t-9.5 22.5t9.5 22.5t22.5 9.5h32q13 0 22.5 -9.5t9.5 -22.5t-9.5 -22.5t-22.5 -9.5zM320 268h-32q-13 0 -22.5 9.5t-9.5 22.5t9.5 22.5t22.5 9.5h32q13 0 22.5 -9.5t9.5 -22.5t-9.5 -22.5t-22.5 -9.5zM480 396h-32q-13 0 -22.5 9.5
t-9.5 22.5t9.5 22.5t22.5 9.5h32q13 0 22.5 -9.5t9.5 -22.5t-9.5 -22.5t-22.5 -9.5zM640 396h-32q-13 0 -22.5 9.5t-9.5 22.5t9.5 22.5t22.5 9.5h32q13 0 22.5 -9.5t9.5 -22.5t-9.5 -22.5t-22.5 -9.5zM320 396h-32q-13 0 -22.5 9.5t-9.5 22.5t9.5 22.5t22.5 9.5h32
q13 0 22.5 -9.5t9.5 -22.5t-9.5 -22.5t-22.5 -9.5zM512 -145q-91 0 -174 35.5t-143 95.5t-95.5 143t-35.5 174t35.5 174t95.5 143t143 95.5t174 35.5t174 -35.5t143 -95.5t95.5 -143t35.5 -174t-35.5 -174t-95.5 -143t-143 -95.5t-174 -35.5zM512 687q-104 0 -192.5 -51.5
t-140 -140t-51.5 -192.5t51.5 -192.5t140 -140t192.5 -51.5t192.5 51.5t140 140t51.5 192.5t-51.5 192.5t-140 140t-192.5 51.5z" />
    <glyph glyph-name="uniE71C" unicode="&#xe71c;" 
d="M927 691l-1 4q-1 2 -4 6q0 1 -0.5 2.5t-1.5 1.5v1h-1q-1 1 -5 4l-5 3q-6 3 -13 3h-224q-13 0 -22.5 -9.5t-9.5 -22.5t9.5 -22.5t22.5 -9.5h139l-152 -135q-94 71 -211 71q-146 0 -249 -103t-103 -249t103 -249t249 -103t249 103t103 249q0 137 -94 238l158 139v-121
q0 -13 9.5 -22.5t22.5 -9.5t22.5 9.5t9.5 22.5v192q0 1 -1 7zM736 236q0 -119 -84.5 -203.5t-203.5 -84.5t-203.5 84.5t-84.5 203.5t84.5 203.5t203.5 84.5t203.5 -84.5t84.5 -203.5z" />
    <glyph glyph-name="uniE721" unicode="&#xe721;" 
d="M288 524h-128q-13 0 -22.5 -9.5t-9.5 -22.5v-544q0 -13 9.5 -22.5t22.5 -9.5h128q13 0 22.5 9.5t9.5 22.5v544q0 13 -9.5 22.5t-22.5 9.5zM576 332h-128q-13 0 -22.5 -9.5t-9.5 -22.5v-352q0 -13 9.5 -22.5t22.5 -9.5h128q13 0 22.5 9.5t9.5 22.5v352q0 13 -9.5 22.5
t-22.5 9.5zM864 684h-128q-13 0 -22.5 -9.5t-9.5 -22.5v-704q0 -13 9.5 -22.5t22.5 -9.5h128q13 0 22.5 9.5t9.5 22.5v704q0 13 -9.5 22.5t-22.5 9.5z" />
    <glyph glyph-name="uniE722" unicode="&#xe722;" 
d="M288 -84h-128q-13 0 -22.5 9.5t-9.5 22.5v544q0 13 9.5 22.5t22.5 9.5h128q13 0 22.5 -9.5t9.5 -22.5v-544q0 -13 -9.5 -22.5t-22.5 -9.5zM192 -20h64v480h-64v-480zM576 -84h-128q-13 0 -22.5 9.5t-9.5 22.5v352q0 13 9.5 22.5t22.5 9.5h128q13 0 22.5 -9.5t9.5 -22.5
v-352q0 -13 -9.5 -22.5t-22.5 -9.5zM480 -20h64v288h-64v-288zM864 -84h-128q-13 0 -22.5 9.5t-9.5 22.5v704q0 13 9.5 22.5t22.5 9.5h128q13 0 22.5 -9.5t9.5 -22.5v-704q0 -13 -9.5 -22.5t-22.5 -9.5zM768 -20h64v640h-64v-640z" />
    <glyph glyph-name="uniE723" unicode="&#xe723;" 
d="M127 45q-13 0 -22 -9.5t-9 -22.5t9 -22.5t23 -9.5q4 0 11 -0.5t27 -5.5t39 -13.5t44.5 -26.5t47.5 -42q10 -10 24 -10q12 0 21 8q10 9 10.5 22.5t-8.5 22.5q-27 31 -60 53t-56.5 32.5t-50.5 16.5t-34 6.5t-16 0.5zM868 43q-4 1 -10.5 1t-23 -1.5t-33.5 -4.5t-41 -10.5
t-46.5 -18.5t-48 -30t-47.5 -42q-9 -10 -8.5 -23t9.5 -23q10 -8 22 -8q14 0 24 10q24 26 53 44.5t52.5 26t46 12.5t33 3.5t13.5 -0.5q13 -1 23 8t11 22t-7.5 23t-21.5 11zM926 265q-29 70 -121 158q60 44 88 112q9 21 -9 37q-77 63 -194.5 103.5t-226.5 40.5
q-185 0 -259 -114q-18 -21 -37 -78q0 -2 -1 -5q-10 -39 -5 -82v-2v-1q0 -9 1 -23t7.5 -52t17 -77t33.5 -93.5t53 -106t79 -111t109 -111.5q9 -8 21 -8q15 0 24 11q9 10 8 23.5t-11 21.5q-162 140 -234 333q76 -77 181.5 -130.5t196.5 -66.5h4q18 0 27 15q49 76 40 143h21
q100 0 167 20q13 5 19.5 17.5t0.5 25.5zM739 266q-34 0 -68 3q-22 2 -31.5 -18t5.5 -36q12 -10 9.5 -40t-20.5 -64q-98 20 -206 85.5t-164 150.5q-55 83 -36 157l1 1q11 31 28 61v1q56 85 206 85q91 0 191 -32t169 -82q-29 -52 -86 -81q-14 -8 -16.5 -24.5t10.5 -27.5
q87 -80 118 -130q-53 -9 -110 -9z" />
    <glyph glyph-name="uniE724" unicode="&#xe724;" 
d="M480 460q-79 0 -135.5 -56.5t-56.5 -135.5t56.5 -135.5t135.5 -56.5t135.5 56.5t56.5 135.5t-56.5 135.5t-135.5 56.5zM480 140q-53 0 -90.5 37.5t-37.5 90.5t37.5 90.5t90.5 37.5t90.5 -37.5t37.5 -90.5t-37.5 -90.5t-90.5 -37.5zM576 -20h-416q-13 0 -22.5 9.5
t-9.5 22.5v512q0 13 9.5 22.5t22.5 9.5h96q13 0 22.5 9.5t9.5 22.5t-9.5 22.5t-22.5 9.5h-96q-40 0 -68 -28t-28 -68v-512q0 -40 28 -68t68 -28h416q13 0 22.5 9.5t9.5 22.5t-9.5 22.5t-22.5 9.5zM512 556h320q13 0 22.5 -9.5t9.5 -22.5v-256q0 -13 9.5 -22.5t22.5 -9.5
t22.5 9.5t9.5 22.5v256q0 40 -28 68t-68 28h-320q-13 0 -22.5 -9.5t-9.5 -22.5t9.5 -22.5t22.5 -9.5zM784 476zM736 476q0 20 14 34t34 14t34 -14t14 -34t-14 -34t-34 -14t-34 14t-14 34zM320 652h128q13 0 22.5 9.5t9.5 22.5t-9.5 22.5t-22.5 9.5h-128q-13 0 -22.5 -9.5
t-9.5 -22.5t9.5 -22.5t22.5 -9.5zM960 44h-96v96q0 13 -9.5 22.5t-22.5 9.5t-22.5 -9.5t-9.5 -22.5v-96h-96q-13 0 -22.5 -9.5t-9.5 -22.5t9.5 -22.5t22.5 -9.5h96v-96q0 -13 9.5 -22.5t22.5 -9.5t22.5 9.5t9.5 22.5v96h96q13 0 22.5 9.5t9.5 22.5t-9.5 22.5t-22.5 9.5z" />
    <glyph glyph-name="uniE725" unicode="&#xe725;" 
d="M512 428q-53 0 -90.5 -37.5t-37.5 -90.5t37.5 -90.5t90.5 -37.5t90.5 37.5t37.5 90.5t-37.5 90.5t-90.5 37.5zM512 236q-26 0 -45 19t-19 45t19 45t45 19t45 -19t19 -45t-19 -45t-45 -19zM928 332h-1q-12 153 -121 262t-262 121v1q0 13 -9.5 22.5t-22.5 9.5t-22.5 -9.5
t-9.5 -22.5v-1q-153 -12 -262 -121t-121 -262h-1q-13 0 -22.5 -9.5t-9.5 -22.5t9.5 -22.5t22.5 -9.5h1q12 -153 121 -262t262 -121v-1q0 -13 9.5 -22.5t22.5 -9.5t22.5 9.5t9.5 22.5v1q153 12 262 121t121 262h1q13 0 22.5 9.5t9.5 22.5t-9.5 22.5t-22.5 9.5zM544 -51v63
q0 13 -9.5 22.5t-22.5 9.5t-22.5 -9.5t-9.5 -22.5v-63q-127 11 -217.5 101.5t-101.5 217.5h63q13 0 22.5 9.5t9.5 22.5t-9.5 22.5t-22.5 9.5h-63q11 127 101.5 217.5t217.5 101.5v-63q0 -13 9.5 -22.5t22.5 -9.5t22.5 9.5t9.5 22.5v63q127 -11 217.5 -101.5t101.5 -217.5
h-63q-13 0 -22.5 -9.5t-9.5 -22.5t9.5 -22.5t22.5 -9.5h63q-11 -127 -101.5 -217.5t-217.5 -101.5z" />
    <glyph glyph-name="uniE726" unicode="&#xe726;" 
d="M519 158v7q22 15 38 34.5t25 43.5t15 44t8 49.5t2.5 46.5t0.5 47v14q0 98 -56 153.5t-155 55.5h-6q-95 0 -146 -54t-51 -155q0 -30 1 -49t6.5 -56.5t15.5 -64.5t31 -57.5t50 -51.5v-6q-63 -9 -114 -27t-85 -49t-34 -68q0 -162 329 -162q82 0 144.5 10t99.5 25.5t60 37.5
t31 43t8 46q0 29 -22 55t-58 43t-70 27.5t-68 17.5zM930 44q-13 0 -22.5 9.5t-9.5 22.5q-1 12 -29.5 33.5t-76 41t-92.5 25.5q-12 1 -20 10t-8 21v67q0 15 12 25q41 32 68 94.5t27 124.5q0 39 -12 66.5t-33.5 41t-43.5 19.5t-48 6q-13 0 -22.5 9t-9.5 22.5t9.5 23t22.5 9.5
q93 0 147 -53t54 -144q0 -71 -30 -143t-77 -116v-25q49 -10 99 -32t88.5 -56.5t38.5 -69.5q0 -13 -9.5 -22.5t-22.5 -9.5z" />
    <glyph glyph-name="uniE727" unicode="&#xe727;" 
d="M832 620h-320q0 40 -28 68t-68 28h-64q-40 0 -68 -28t-28 -68h-96q-40 0 -68 -28t-28 -68v-512q0 -40 28 -68t68 -28h418q14 0 23.5 10.5t8 25t-1.5 25.5q0 70 38.5 127t104 82.5t137.5 7.5q15 -4 27.5 5.5t12.5 25.5v299q0 40 -28 68t-68 28zM480 76q-79 0 -135.5 56.5
t-56.5 135.5t56.5 135.5t135.5 56.5t135.5 -56.5t56.5 -135.5t-56.5 -135.5t-135.5 -56.5zM784 396q-20 0 -34 14t-14 34t14 34t34 14t34 -14t14 -34t-14 -34t-34 -14zM832 138q-66 0 -113 -47t-47 -113t47 -113t113 -47t113 47t47 113t-47 113t-113 47zM896 -52h-32v-32
q0 -13 -9.5 -22.5t-22.5 -9.5t-22.5 9.5t-9.5 22.5v32h-32q-13 0 -22.5 9.5t-9.5 22.5t9.5 22.5t22.5 9.5h32v32q0 13 9.5 22.5t22.5 9.5t22.5 -9.5t9.5 -22.5v-32h32q13 0 22.5 -9.5t9.5 -22.5t-9.5 -22.5t-22.5 -9.5z" />
    <glyph glyph-name="uniE729" unicode="&#xe729;" 
d="M387 332h-192q-39 0 -67.5 28.5t-28.5 67.5v192q0 40 28.5 68t67.5 28h192q40 0 68 -28t28 -68v-192q0 -39 -28 -67.5t-68 -28.5zM195 652q-13 0 -22.5 -9t-9.5 -23v-192q0 -13 9.5 -22.5t22.5 -9.5h192q13 0 22.5 9.5t9.5 22.5v192q0 14 -9.5 23t-22.5 9h-192zM387 -116
h-192q-39 0 -67.5 28.5t-28.5 67.5v192q0 40 28.5 68t67.5 28h192q40 0 68 -28t28 -68v-192q0 -39 -28 -67.5t-68 -28.5zM195 204q-13 0 -22.5 -9t-9.5 -23v-192q0 -13 9.5 -22.5t22.5 -9.5h192q13 0 22.5 9.5t9.5 22.5v192q0 14 -9.5 23t-22.5 9h-192zM832 332h-192
q-40 0 -68 28.5t-28 67.5v192q0 40 28 68t68 28h192q40 0 68 -28t28 -68v-192q0 -39 -28 -67.5t-68 -28.5zM640 652q-13 0 -22.5 -9t-9.5 -23v-192q0 -13 9.5 -22.5t22.5 -9.5h192q13 0 22.5 9.5t9.5 22.5v192q0 14 -9.5 23t-22.5 9h-192zM832 -116h-192q-40 0 -68 28.5
t-28 67.5v192q0 40 28 68t68 28h192q40 0 68 -28t28 -68v-192q0 -39 -28 -67.5t-68 -28.5zM640 204q-13 0 -22.5 -9t-9.5 -23v-192q0 -13 9.5 -22.5t22.5 -9.5h192q13 0 22.5 9.5t9.5 22.5v192q0 14 -9.5 23t-22.5 9h-192z" />
    <glyph glyph-name="uniE72C" unicode="&#xe72c;" 
d="M843 684h-662q-48 0 -82.5 -34.5t-34.5 -82.5v-534q0 -48 34.5 -82.5t82.5 -34.5h662q48 0 82.5 34.5t34.5 82.5v534q0 48 -34.5 82.5t-82.5 34.5zM288 524q27 0 45.5 -18.5t18.5 -45.5t-18.5 -45.5t-45.5 -18.5t-45.5 18.5t-18.5 45.5t18.5 45.5t45.5 18.5zM832 76
q0 -13 -9.5 -22t-22.5 -9l-574 -1q-17 0 -26 12q-10 13 -5 29q3 9 8 22.5t21.5 44.5t35.5 54.5t50 42.5t65 19q38 -1 96 -18q68 -20 110 -14q14 3 22.5 17.5t20.5 52.5q8 26 13.5 40.5t19.5 39t30.5 38t45.5 24.5t65 11q14 0 23 -9.5t9 -22.5l2 -127v-224z" />
    <glyph glyph-name="uniE72D" unicode="&#xe72d;" 
d="M822.5 290.5q-9.5 9.5 -22.5 9.5t-23 -9l-233 -234v563q0 13 -9.5 22.5t-22.5 9.5t-22.5 -9.5t-9.5 -22.5v-563l-233 234q-10 9 -23 9t-22.5 -9.5t-9.5 -22.5t9 -23l288 -288q5 -4 11 -6.5t12 -2.5t12 2.5t11 6.5l288 288q9 10 9 23t-9.5 22.5z" />
    <glyph glyph-name="uniE730" unicode="&#xe730;" 
d="M512 748q-185 0 -316.5 -112.5t-131.5 -271.5q0 -137 100.5 -242.5t256.5 -133.5l65 -91q10 -13 26 -13t26 13l65 91q156 28 256.5 133.5t100.5 242.5q0 159 -131.5 271.5t-316.5 112.5zM288.5 300q-26.5 0 -45.5 19t-19 45t19 45t45.5 19t45 -19t18.5 -45t-18.5 -45
t-45 -19zM512.5 300q-26.5 0 -45.5 19t-19 45t19 45t45.5 19t45 -19t18.5 -45t-18.5 -45t-45 -19zM736.5 300q-26.5 0 -45.5 19t-19 45t19 45t45.5 19t45 -19t18.5 -45t-18.5 -45t-45 -19z" />
    <glyph glyph-name="uniE731" unicode="&#xe731;" 
d="M512 -116q-16 0 -26 13l-65 91q-156 28 -256.5 133.5t-100.5 242.5q0 159 131.5 271.5t316.5 112.5t316.5 -112.5t131.5 -271.5q0 -137 -100.5 -242.5t-256.5 -133.5l-65 -91q-10 -13 -26 -13zM512 684q-159 0 -271.5 -94t-112.5 -226q0 -116 89.5 -205t226.5 -110
q13 -2 21 -13l47 -65l47 65q7 11 21 13q137 21 226.5 110t89.5 205q0 132 -112.5 226t-271.5 94zM288.5 300q-26.5 0 -45.5 19t-19 45t19 45t45.5 19t45 -19t18.5 -45t-18.5 -45t-45 -19zM288 364v-32v32zM736.5 300q-26.5 0 -45.5 19t-19 45t19 45t45.5 19t45 -19t18.5 -45
t-18.5 -45t-45 -19zM736 364v-32v32zM512.5 300q-26.5 0 -45.5 19t-19 45t19 45t45.5 19t45 -19t18.5 -45t-18.5 -45t-45 -19zM512 364v-32v32z" />
    <glyph glyph-name="uniE734" unicode="&#xe734;" 
d="M256 364zM192 364q0 26 19 45t45 19t45 -19t19 -45t-19 -45t-45 -19t-45 19t-19 45zM715 556h-534q-48 0 -82.5 -34.5t-34.5 -82.5v-406q0 -48 34.5 -82.5t82.5 -34.5h534q48 0 82.5 34.5t34.5 82.5v406q0 48 -34.5 82.5t-82.5 34.5zM768 33q0 -22 -15.5 -37.5
t-37.5 -15.5h-534q-22 0 -37.5 15.5t-15.5 37.5v406q0 22 15.5 37.5t37.5 15.5h534q22 0 37.5 -15.5t15.5 -37.5v-406zM843 684h-587q-13 0 -22.5 -9.5t-9.5 -22.5t9.5 -22.5t22.5 -9.5h587q22 0 37.5 -15.5t15.5 -37.5v-395q0 -13 9.5 -22.5t22.5 -9.5t22.5 9.5t9.5 22.5
v395q0 48 -34.5 82.5t-82.5 34.5zM673 363q-37 0 -65 -8.5t-42.5 -19t-25 -29.5t-13.5 -29.5t-7 -29.5q-6 -26 -10.5 -33.5t-18.5 -9.5q-28 -3 -36.5 -1t-22.5 10q-36 22 -78 23q-35 1 -65 -15t-46 -35.5t-29 -46.5t-16 -38t-5 -19q-3 -13 4 -24t20 -14q3 -1 7 -1q11 0 20 7
t11 18q1 4 3 11.5t10 25.5t18 31.5t27.5 24.5t37.5 11h2q24 0 46 -14q22 -13 40 -17t62 0q19 3 33 11t21.5 16.5t13.5 22.5t8.5 21.5t4.5 21.5q4 20 7.5 28.5t12 19t26 14t45.5 3.5q13 0 22.5 9.5t9.5 23t-9.5 22.5t-22.5 9z" />
    <glyph glyph-name="uniE735" unicode="&#xe735;" 
d="M641 200v18q127 89 127 321q0 113 -66.5 177t-185.5 64h-8q-119 0 -185.5 -64t-66.5 -177q0 -231 128 -321v-18q-76 -10 -139 -31.5t-106 -56.5t-43 -76q0 -185 416 -185t416 185q0 41 -43 76t-106 56t-138 32z" />
    <glyph glyph-name="uniE736" unicode="&#xe736;" 
d="M512 -148q-416 0 -416 184q0 42 43 77t106 56t139 31v19q-128 89 -128 321q0 113 66.5 176.5t185.5 63.5h8q119 0 185.5 -63.5t66.5 -176.5q0 -232 -127 -322v-18q75 -10 138 -31t106 -56t43 -77q0 -184 -416 -184zM508 716q-28 0 -53 -4t-50.5 -16t-43.5 -31t-29.5 -51
t-11.5 -74q0 -209 113 -277q15 -9 15 -27v-64q0 -12 -8.5 -21.5t-20.5 -10.5q-108 -11 -183.5 -44t-75.5 -60q0 -35 31.5 -60t85.5 -37.5t111 -17.5t124 -5t124 5t111 17.5t85.5 37.5t31.5 60q0 27 -75.5 60t-183.5 44q-13 1 -21 10.5t-8 22.5l1 64q1 17 16 26
q57 35 84 102.5t27 174.5q0 42 -11.5 74t-29.5 51t-43.5 31t-50.5 16t-53 4h-8z" />
    <glyph glyph-name="uniE737" unicode="&#xe737;" 
d="M609 140q-37 0 -69 4q-13 1 -21 11.5t-6.5 23.5t11.5 21.5t23 6.5q70 -7 139.5 3t83.5 40q6 12 18.5 16.5t24.5 -1t16.5 -18t-1.5 -24.5q-40 -83 -219 -83zM896 172q-13 0 -22.5 9.5t-9.5 22.5v110l-43 16q-21 7 -21 30q0 119 -84.5 203.5t-203.5 84.5t-203.5 -84.5
t-84.5 -203.5q0 -17 -13 -26l-19 -14v-116q0 -13 -9.5 -22.5t-22.5 -9.5t-22.5 9.5t-9.5 22.5v133q0 16 13 26l19 13q7 140 109 238t243 98q139 0 240.5 -95.5t110.5 -234.5l44 -15q21 -8 21 -30v-133q0 -13 -9.5 -22.5t-22.5 -9.5zM640 28v10q48 37 64 73q-19 -3 -88 -3
q-67 0 -76 1q-26 3 -43 25t-14 49q3 26 24 42.5t47 13.5q55 -5 106 -0.5t75 14.5q1 21 1 84q0 102 -58 160t-158 61h-20q-100 -2 -156.5 -61t-56.5 -161q0 -35 0.5 -57.5t6 -61.5t15 -67t29 -59.5t46.5 -52.5v-10q-100 -15 -163 -53t-63 -89q0 -13 9.5 -23.5t23.5 -10.5h628
q13 0 26 10.5t13 23.5q0 51 -60 89t-158 53z" />
    <glyph glyph-name="uniE738" unicode="&#xe738;" 
d="M816.5 -125q-13.5 0 -22.5 9l-214 214q-9 9 -9 22.5t9 23t22.5 9.5t22.5 -10l192 -191l33 33l-191 191q-9 10 -9 23t9.5 22.5t22.5 9.5t22 -10l214 -213q9 -9 9 -22.5t-9 -22.5l-79 -79q-9 -9 -22.5 -9zM591 684q2 6 2 13v0q-1 6 -4 11q0 1 -1 2q-3 5 -6 8q0 1 -2 2h-1
q-5 4 -6 4h-1l-1 1q-85 35 -175 17t-156 -84v-1l-1.5 -1.5l-1.5 -1.5h-1l-162 -162q-10 -9 -10 -22t10 -23l98 -98q9 -10 22.5 -10t22.5 10l56 56l68 -68q10 -10 23 -10t22.5 9.5t9.5 23t-9 22.5l-91 91q-10 9 -23 9t-22 -9l-56 -56l-53 53l139 138q0 1 0.5 2t1 1t1.5 1l1 1
q60 60 145 69q-2 -2 -6 -5q-15 -12 -26 -22v-1l-1 -1q-29 -30 -50 -65q-3 -6 -7 -12l1 -1q-20 -39 0 -78q2 -4 6 -8l1 -1q0 -1 1 -2l70 -70q10 -9 23 -9t22.5 9t9.5 22.5t-9 22.5l-68 67q-4 10 1 19v1q4 7 5 8q16 29 40 52q1 1 13 12q47 39 106 43h2q6 1 10 3h2v1q5 3 8 6v1
h1q4 5 5 8v2h1zM290 -148q-44 0 -83 18q-15 8 -18 24t9 28l88 88l-33 33l-88 -87q-12 -12 -28 -9q-17 3 -23 18q-25 55 -14 114t53 101q37 38 90 50.5t104 -3.5l238 239q-16 51 -3.5 103.5t50.5 90.5q56 56 136 56q41 0 79 -17q16 -7 19 -23.5t-9 -28.5l-89 -89l33 -33
l89 90q12 11 28.5 8.5t23.5 -17.5q26 -55 15.5 -115.5t-53.5 -102.5q-56 -56 -135 -56q-31 0 -61 10l-237 -238q17 -51 4.5 -104.5t-50.5 -91.5q-56 -56 -135 -56zM283 -84q56 -3 97 37q28 29 35 69t-11 77q-9 20 7 36l267 267q15 16 36 6q36 -17 76.5 -10t68.5 35
q40 40 37 97l-72 -73q-10 -9 -23 -9t-23 9l-78 79q-9 9 -9 22t9 23l71 71q-55 1 -93 -37q-29 -29 -36 -68t10 -76q9 -20 -7 -36l-268 -268q-15 -15 -36 -6q-35 16 -75.5 9t-67.5 -35q-39 -39 -38 -94l70 70q10 9 23 9t23 -9l78 -78q9 -10 9 -23t-9 -23z" />
    <glyph glyph-name="uniE739" unicode="&#xe739;" 
d="M961 556q0 40 -28.5 68t-67.5 28h-186h-1h-1q-6 -1 -10 -2l-1 -1h-1q-5 -3 -8 -6q-18 -17 -35 -88q-3 -12 -4 -14q-4 -17 -27 -17h-7h-8h-416q-40 0 -68 -28.5t-28 -69.5l32 -414q0 -40 28 -68t68 -28h640q40 0 68 28t28 66zM864 12q0 -13 -9.5 -22.5t-22.5 -9.5h-640
q-13 0 -22.5 10t-9.5 24l-32 414q0 13 9.5 22.5t22.5 9.5h416h8h7q35 0 58.5 17t30.5 48q2 4 4 15q8 34 13 48h168q13 0 22.5 -9.5t9.5 -22.5v-2v-1zM128 588h416q13 0 22.5 9.5t9.5 22.5t-9.5 22.5t-22.5 9.5h-416q-13 0 -22.5 -9.5t-9.5 -22.5t9.5 -22.5t22.5 -9.5z" />
    <glyph glyph-name="uniE73A" unicode="&#xe73a;" 
d="M918 7l-213 214q-10 9 -23 9t-22 -9l-79 -78q-10 -10 -10 -23t9 -23l214 -214q10 -9 23 -9t23 9l78 79q10 9 10 22.5t-10 22.5zM574 723l-1 1q-86 35 -176.5 17t-155.5 -83l-167 -166q-9 -10 -9 -23t9 -23l98 -98q10 -9 23 -9t23 9l56 56l68 -68q9 -9 22 -9h1q13 0 22 9
l78 79q9 10 9 23t-9 23l-68 67q-3 9 1 19l5 8q9 17 41 54q48 48 116 53q22 -2 31 19q5 12 0 24.5t-17 17.5zM942 605q-7 15 -23 18t-28 -9l-90 -90l-33 34l89 88q12 12 9 28.5t-18 23.5q-38 17 -80 17q-79 0 -135 -56q-38 -38 -51 -90.5t4 -103.5l-239 -238q-51 16 -104 3
t-90 -51q-42 -42 -53 -101t14 -114q7 -15 23 -18q17 -3 29 9l87 87l33 -33l-88 -88q-11 -11 -8.5 -27.5t17.5 -23.5q40 -19 83 -19q79 0 135 56q39 39 51 92.5t-5 104.5l237 237q30 -10 62 -10q79 0 135 56q43 43 53 103t-16 115z" />
    <glyph glyph-name="uniE73C" unicode="&#xe73c;" 
d="M992 300q0 9 -1 11q-1 6 -2 11q-1 1 -1 2q-1 3 -2 4q-66 145 -197 234.5t-277 89.5t-277 -89t-197 -234q-1 -3 -2 -5q0 -2 -1 -2q0 -2 -1 -8l-2 -11v-6q1 -7 1 -8q0 -3 1 -7l2 -6q1 -3 2 -4q66 -145 197 -234.5t277 -89.5t277 89t196 233q2 3 3 7q0 1 1 1q0 2 0.5 4
t1 3.5t-0.5 1.5q2 8 2 13zM512 140q-66 0 -113 47t-47 113t47 113t113 47t113 -47t47 -113t-47 -113t-113 -47z" />
    <glyph glyph-name="uniE73D" unicode="&#xe73d;" 
d="M992 300q0 9 -1 11q-1 6 -2 11q-1 1 -1 2q-1 3 -2 4q-66 145 -197 234.5t-277 89.5t-277 -89t-197 -234q-1 -3 -2 -5q0 -2 -1 -2q0 -2 -1 -8l-2 -11v-6q1 -7 1 -8q0 -3 1 -7l2 -6q1 -3 2 -4q66 -145 197 -234.5t277 -89.5t277 89t196 233q2 3 3 7q0 1 1 1q0 2 0.5 4
t1 3.5t-0.5 1.5q2 8 2 13zM927 298v-1v-1q-59 -128 -173.5 -206t-241.5 -78t-241 78t-174 206v2h-1v1v1v1q0 1 1 2v1q59 128 173.5 206t241.5 78t241.5 -78t173.5 -206v-1q1 -3 1 -4zM512 460q-66 0 -113 -47t-47 -113t47 -113t113 -47t113 47t47 113t-47 113t-113 47z
M512 204q-40 0 -68 28t-28 68t28 68t68 28t68 -28t28 -68t-28 -68t-68 -28z" />
    <glyph glyph-name="uniE740" unicode="&#xe740;" 
d="M704 716h-576q-40 0 -68 -28t-28 -68v-416q0 -40 28 -68t68 -28l1 -161q0 -22 21 -30q5 -2 11 -2q14 0 24 12l166 181h353q40 0 68 28t28 68v416q0 40 -28 68t-68 28zM637 378q-29 -50 -93 -80.5t-126 -30.5q-63 0 -127 31t-93 81q-7 11 -3.5 24t15 19.5t24 3t19.5 -14.5
q20 -35 69.5 -57.5t95.5 -22.5q45 0 94 22t70 57q7 12 19.5 15t24 -3.5t15 -19.5t-3.5 -24zM863 -149q-13 0 -22 10l-118 119h-147q-13 0 -22.5 9.5t-9.5 22.5t9.5 22.5t22.5 9.5h160q14 0 23 -10l73 -73v50v4q1 12 10 20.5t22 8.5h32q14 0 23 9t9 23v352q0 13 -9.5 22.5
t-22.5 9.5t-22.5 9.5t-9.5 22.5t9.5 22.5t22.5 9.5q40 0 68 -28.5t28 -67.5v-352q0 -40 -28 -68t-68 -28l-1 -97q0 -21 -19 -29q-6 -3 -13 -3z" />
    <glyph glyph-name="uniE741" unicode="&#xe741;" 
d="M637 378q7 11 3.5 24t-15 19.5t-24 3.5t-19.5 -15q-19 -33 -67.5 -56t-97 -23t-97 23.5t-67.5 56.5q-7 11 -19.5 14.5t-24 -3t-15 -19.5t3.5 -24q29 -52 93.5 -82t126.5 -30q60 0 124.5 30t94.5 81zM704 108q40 0 68 28t28 68v416q0 40 -28 68t-68 28h-576q-40 0 -68 -28
t-28 -68v-416q0 -40 28 -68t68 -28v-160q0 -22 20 -30q6 -2 12 -2q14 0 23 10l171 182h350zM193 136v2v2q0 13 -9 22.5t-23 9.5h-33q-13 0 -22.5 9.5t-9.5 22.5v416q0 13 9.5 22.5t22.5 9.5h576q13 0 22.5 -9.5t9.5 -22.5v-416q0 -13 -9.5 -22.5t-22.5 -9.5h-364h-1
q-3 0 -9 -2h-1q-1 0 -2 -1q-2 -1 -7 -5h-1l-2 -2h-1l-124 -133zM896 524q-13 0 -22.5 -9.5t-9.5 -23t9.5 -22.5t23 -9t22.5 -9.5t9 -22.5v-352q0 -14 -9 -23t-23 -9h-32q-13 0 -22.5 -9.5t-9.5 -22.5v-1v0v-50l-73 73q-9 10 -23 10h-160q-13 0 -22.5 -9.5t-9.5 -22.5
t9.5 -22.5t22.5 -9.5h147l118 -119q9 -10 23 -10q6 0 12 3q19 8 20 29v97q40 0 68 28t28 68v352q0 39 -28 67.5t-68 28.5z" />
    <glyph glyph-name="uniE742" unicode="&#xe742;" 
d="M448 -116h-4l-286 32q-39 1 -66.5 29t-27.5 67v608q0 40 28 68t68 28h4l286 -32q39 -1 66.5 -29t27.5 -67v-608q0 -40 -28 -68t-68 -28zM159 652q-13 -1 -22 -10t-9 -22v-608q0 -13 9.5 -22.5t22.5 -9.5h4l285 -32q13 1 22 10t9 22v608q0 13 -9.5 22.5t-22.5 9.5h-4z
M609 -112q-12 0 -21 8t-11 20q-1 13 7.5 23.5t21.5 11.5l254 29h4q13 0 22.5 9.5t9.5 22.5v608q0 13 -9 22t-22 10l-253 -28q-12 -2 -22.5 6.5t-12 21.5t6.5 23.5t21 11.5l256 29h3q40 0 68 -28t28 -68v-608q0 -39 -27.5 -67t-66.5 -29l-253 -28h-4z" />
    <glyph glyph-name="uniE74A" unicode="&#xe74a;" 
d="M257 235h512q14 0 23 9.5t9 22.5t-9 22.5t-23 9.5h-512q-13 0 -22.5 -9.5t-9.5 -22.5t9.5 -22.5t22.5 -9.5zM257 43h512q14 0 23 9.5t9 22.5t-9 22.5t-23 9.5h-512q-13 0 -22.5 -9.5t-9.5 -22.5t9.5 -22.5t22.5 -9.5zM448 620h160q13 0 22.5 9.5t9.5 22.5t-9.5 22.5
t-22.5 9.5h-160q-13 0 -22.5 -9.5t-9.5 -22.5t9.5 -22.5t22.5 -9.5zM847 684h-47q-13 0 -22.5 -9.5t-9.5 -22.5t9.5 -22.5t22.5 -9.5h47q5 0 11 -9t6 -23v-96h-704v96q0 13 9 22.5t22 9.5h65q13 0 22.5 9.5t9.5 22.5t-9.5 22.5t-22.5 9.5h-65q-39 0 -67 -28t-28 -68v-640
q0 -40 28 -68t68 -28h640q40 0 68 28t28 68v640q0 40 -24 68t-57 28zM864 -52q0 -13 -9.5 -22.5t-22.5 -9.5h-640q-13 0 -22.5 9.5t-9.5 22.5v480h704v-480zM704 588q13 0 22.5 9.5t9.5 22.5v96q0 13 -9.5 22.5t-22.5 9.5t-22.5 -9.5t-9.5 -22.5v-96q0 -13 9.5 -22.5
t22.5 -9.5zM352 588q13 0 22.5 9.5t9.5 22.5v96q0 13 -9.5 22.5t-22.5 9.5t-22.5 -9.5t-9.5 -22.5v-96q0 -13 9.5 -22.5t22.5 -9.5z" />
    <glyph glyph-name="uniE751" unicode="&#xe751;" 
d="M901 432l-263 256q-28 27 -71.5 27t-71.5 -27l-327 -320q-44 -42 -57 -69.5t-13 -81.5v-144q0 -53 6.5 -86t26.5 -58.5t57 -36.5t96 -11h132q30 0 54.5 7.5t50 25.5t42 32.5t47.5 46.5l290 297q30 29 30 72q0 42 -29 70zM323 25q-40 0 -68 28.5t-28 68t28 67.5t68 28
t68 -28t28 -67.5t-28 -68t-68 -28.5z" />
    <glyph glyph-name="uniE752" unicode="&#xe752;" 
d="M323 25q-40 0 -68 28.5t-28 68t28 67.5t68 28t68 -28t28 -67.5t-28 -68t-68 -28.5zM323 153q-13 0 -22.5 -9.5t-9.5 -22.5t9.5 -22.5t22.5 -9.5t22.5 9.5t9.5 22.5t-9.5 22.5t-22.5 9.5zM416 -115h-132q-59 0 -96 10.5t-57 36t-27 58.5t-7 87v141q0 54 13.5 81t57.5 70
l327 320q27 26 71 26t71 -26l263 -256q29 -28 29 -71t-29 -71l-290 -295q-32 -31 -48 -45.5t-41.5 -33t-50.5 -25.5t-54 -7zM566.5 653q-16.5 0 -26.5 -10l-327 -320q-37 -36 -44.5 -51.5t-7.5 -53.5v-141q0 -31 1 -48t5.5 -33.5t12 -24t22 -13.5t33.5 -7.5t49 -1.5h132
q37 0 65.5 19.5t83.5 73.5l27 26l263 268q10 10 10 26t-9 25l-263 256q-10 10 -26.5 10z" />
    <glyph glyph-name="uniE753" unicode="&#xe753;" 
d="M506 -117q-282 0 -282 139q0 46 54 78.5t132 45.5q-46 38 -62 97.5t-16 133.5q0 84 47 131.5t130 47.5h6q83 0 129.5 -47.5t46.5 -131.5q0 -74 -15.5 -133.5t-62.5 -97.5q79 -13 133 -45.5t54 -78.5q0 -139 -294 -139zM509 492q-113 0 -113 -115q0 -68 13.5 -116.5
t52.5 -73.5q15 -9 15 -27v-42q0 -12 -8.5 -21t-20.5 -11q-45 -5 -83.5 -17.5t-57.5 -25t-19 -21.5q0 -75 218 -75q108 0 169 20t61 55q0 9 -19 21.5t-57.5 25t-83.5 17.5q-13 2 -21 11t-8 21v42q0 18 15 27q39 25 52 73.5t13 116.5q0 115 -112 115h-6zM929 47
q-13 0 -22.5 9.5t-9.5 22.5q0 23 -36.5 52t-93.5 35q-12 1 -20.5 10t-8.5 22v72q0 17 15 27q80 50 80 177q0 30 -11 52.5t-26 34t-35 18.5t-33.5 8.5t-25.5 1.5q-14 0 -23 9.5t-9 22.5t9 22.5t23 9.5q35 0 68 -9.5t62.5 -30t47 -56.5t17.5 -83q0 -150 -95 -221v-28
q70 -15 114.5 -58t44.5 -88q0 -13 -9.5 -22.5t-22.5 -9.5zM98 47q-13 0 -22.5 9.5t-9.5 22.5q0 45 44.5 88t114.5 58v28q-95 71 -95 221q0 47 17.5 83t46.5 56t62 30t69 10q13 0 22.5 -9.5t9.5 -22.5t-9.5 -22.5t-22.5 -9.5t-26 -1.5t-33 -8.5t-35 -18.5t-26 -34t-11 -52.5
q0 -127 80 -177q15 -10 15 -27v-72q0 -13 -8.5 -22t-20.5 -10q-57 -6 -93.5 -35t-36.5 -52q0 -13 -9.5 -22.5t-22.5 -9.5z" />
    <glyph glyph-name="uniE755" unicode="&#xe755;" 
d="M384 -84q-13 0 -22.5 9.5t-9.5 22.5v704q0 13 9.5 22.5t22.5 9.5t22.5 -9.5t9.5 -22.5v-704q0 -13 -9.5 -22.5t-22.5 -9.5zM641 -84q-13 0 -22.5 9.5t-9.5 22.5v704q0 13 9.5 22.5t22.5 9.5t22.5 -9.5t9.5 -22.5v-704q0 -13 -9.5 -22.5t-22.5 -9.5zM864 76
q-13 0 -22.5 9.5t-9.5 22.5v384q0 13 9.5 22.5t22.5 9.5t22.5 -9.5t9.5 -22.5v-384q0 -13 -9.5 -22.5t-22.5 -9.5zM160 76q-13 0 -22.5 9.5t-9.5 22.5v384q0 13 9.5 22.5t22.5 9.5t22.5 -9.5t9.5 -22.5v-384q0 -13 -9.5 -22.5t-22.5 -9.5z" />
    <glyph glyph-name="uniE756" unicode="&#xe756;" 
d="M574 718q-46 0 -100.5 -21.5t-102 -54t-99.5 -77t-88.5 -82t-73 -78.5t-50 -57.5t-21.5 -28.5q-15 -19 0 -39q8 -11 21.5 -27.5t50 -57.5t73 -78.5t88 -82t99.5 -77t102.5 -54t100.5 -21.5q113 0 209.5 56t152.5 152.5t56 209.5t-56 209.5t-152.5 152.5t-209.5 56z
M574 -54q-43 0 -98.5 26t-106 65t-103.5 89.5t-91.5 92.5t-69.5 81q31 39 69.5 81t91.5 92.5t103.5 89.5t105.5 65t99 26q96 0 177.5 -47.5t129 -129t47.5 -177.5t-47.5 -177.5t-129 -129t-177.5 -47.5zM759 444.5q-9 9.5 -22.5 9.5t-22.5 -9l-106 -104l-104 104
q-10 9 -23 9t-22.5 -9t-9.5 -22.5t9 -22.5l104 -104l-104 -104q-10 -9 -10 -22.5t9.5 -23t22.5 -9.5t23 9l105 104l105 -106q10 -9 23 -9t22.5 9t9.5 22.5t-9 22.5l-106 106l106 105q9 9 9 22t-9 22.5z" />
    <glyph glyph-name="uniE759" unicode="&#xe759;" 
d="M800 -148h-576q-40 0 -68 28t-28 68v640q0 40 28 68t68 28h448q13 0 22.5 -9.5t9.5 -22.5t-9.5 -22.5t-22.5 -9.5h-448q-13 0 -22.5 -9.5t-9.5 -22.5v-640q0 -13 9.5 -22.5t22.5 -9.5h576q13 0 22.5 9.5t9.5 22.5v512q0 13 9.5 22.5t22.5 9.5t22.5 -9.5t9.5 -22.5v-512
q0 -40 -28 -68t-68 -28zM512 269q-14 0 -23 9.5t-9 23t9 22.5l418 414q10 9 23 9t22.5 -9.5t9.5 -22.5t-10 -23l-418 -413q-9 -10 -22 -10z" />
    <glyph glyph-name="uniE760" unicode="&#xe760;" 
d="M918 497l-246 242q-9 9 -23 9q-13 0 -23 -9l-459 -471q-7 -6 -9 -16l-61 -331q-4 -17 9 -29q9 -9 22 -9q4 0 7 1l292 65q10 2 16 9l476 494q9 10 9 23t-10 22zM428 9q-9 -10 -23 -10q-13 0 -22 9l-182 171q-10 9 -10 22.5t9 23t22 10t23 -8.5l182 -172q10 -9 10 -22
t-9 -23z" />
    <glyph glyph-name="uniE761" unicode="&#xe761;" 
d="M920 497l-247 242q-9 9 -23 9q-13 0 -22 -9l-459 -471q-7 -7 -9 -16l-62 -331q-3 -17 9 -29q9 -9 22 -9q4 0 7 1l293 65q9 2 16 9l476 494q9 10 8.5 23t-9.5 22zM434 39l-123 121q-9 10 -22.5 10t-22.5 -9.5t-9 -23t9 -22.5l113 -111l-209 -47l51 273l430 441l201 -197z
" />
    <glyph glyph-name="uF00F5" unicode="&#xf00f5;" 
d="M943 305q0 117 -58 216t-157 156.5t-216 57.5t-216 -57.5t-156.5 -156.5t-57.5 -216t57.5 -216t156.5 -156.5t216 -57.5q143 0 259 88q5 5 5 12q0 8 -5.5 13.5t-13.5 5.5t-14 -6q-103 -76 -230 -76q-106 0 -196 52.5t-142 142t-52 195.5t52 195.5t142 142t196 52.5
t195.5 -52.5t141.5 -142t52 -195.5q0 -98 -44 -182q-1 -4 -1 -6q0 -8 5.5 -13.5t13.5 -5.5q13 0 18 13q49 94 49 197zM400 421q0 18 -13 30.5t-31 12.5t-30.5 -12.5t-12.5 -30.5t12.5 -31t30.5 -13t31 13t13 31zM670 464q-18 0 -31 -12.5t-13 -30.5t13 -31t31 -13t30.5 13
t12.5 31t-12.5 30.5t-30.5 12.5zM702 181q0 9 -6 15.5t-15 6.5q-1 0 -5 -1h-1q-84 -39 -162 -39q-76 0 -160 38h-1q-4 2 -7 2q-9 0 -15 -6.5t-6 -15.5q0 -13 11 -19q94 -43 177 -43t178 43q12 7 12 19z" />
  </font>
</defs>
</svg>
